<svg width="349" height="349" viewBox="0 0 349 349" fill="none" xmlns="http://www.w3.org/2000/svg">
<circle cx="174.5" cy="174.5" r="174.5" fill="#C4D3AA"/>
<ellipse cx="214.937" cy="114.767" rx="89.9346" ry="87.9212" fill="#012725"/>
<path d="M167.912 69.7999H164.086V71.9744H167.388V73.5181H164.086V77.0886H162.18V68.2294H167.912V69.7999ZM171.763 70.6724C173.763 70.6724 175.092 72.0147 175.092 73.9208C175.092 75.8269 173.763 77.1692 171.763 77.1692C169.749 77.1692 168.42 75.8269 168.42 73.9208C168.42 72.0147 169.749 70.6724 171.763 70.6724ZM171.763 75.6658C172.662 75.6658 173.226 74.9544 173.226 73.9208C173.226 72.9006 172.662 72.1758 171.763 72.1758C170.85 72.1758 170.286 72.9006 170.286 73.9208C170.286 74.9544 170.85 75.6658 171.763 75.6658ZM179.22 70.6724C180.898 70.6724 181.878 71.6657 181.878 72.9006C181.878 73.1825 181.838 73.3704 181.838 73.3704L180.213 73.4644C180.227 73.4375 180.24 73.3167 180.24 73.1825C180.24 72.6456 179.891 72.1758 179.193 72.1758C178.361 72.1758 177.797 72.8604 177.797 73.8805C177.797 74.9544 178.348 75.6658 179.435 75.6658C180.428 75.6658 180.979 75.1557 181.166 74.9275L182.066 76.0819C181.663 76.592 180.737 77.1692 179.314 77.1692C177.193 77.1692 175.931 75.8269 175.931 73.9476C175.931 72.0013 177.274 70.6724 179.22 70.6724ZM187.257 70.7529H189.096V77.0886L187.606 77.1423C187.499 76.7262 187.405 76.0819 187.405 75.8805H187.378C187.069 76.6188 186.479 77.1692 185.418 77.1692C183.848 77.1692 183.043 76.0819 183.043 74.6456V70.7529H184.895V74.3235C184.895 75.0752 185.271 75.5852 186.009 75.5852C186.841 75.5852 187.257 74.7664 187.257 74.0282V70.7529ZM194.058 72.9677C194.072 72.914 194.085 72.8335 194.085 72.7395C194.085 72.2295 193.709 71.9073 193.065 71.9073C192.461 71.9073 192.125 72.1892 192.125 72.565C192.125 73.8402 195.83 72.8335 195.843 75.2765C195.857 76.4175 194.81 77.1692 193.078 77.1692C191.159 77.1692 190.286 76.3638 190.125 76.2295L190.984 75.1154C191.118 75.2362 192.058 75.8805 193.011 75.8805C193.655 75.8805 193.964 75.6926 193.964 75.3839C193.964 74.3637 190.42 74.9812 190.42 72.6724C190.42 71.4375 191.494 70.6724 193.132 70.6724C194.662 70.6724 195.736 71.4107 195.736 72.4442C195.736 72.6993 195.682 72.8738 195.682 72.8738L194.058 72.9677ZM203.394 75.9745C204.938 75.9745 206.012 76.5651 206.012 77.8537C206.012 78.8605 205.274 79.9075 202.549 79.9075C200.227 79.9075 199.18 79.2363 199.18 78.2564C199.18 77.6255 199.582 77.196 200.24 76.9812C199.797 76.7128 199.515 76.3101 199.515 75.7866C199.515 75.1691 199.931 74.7799 200.428 74.6054C199.985 74.2027 199.743 73.6523 199.743 73.008C199.743 71.6254 200.858 70.6724 202.549 70.6724C203.193 70.6724 203.757 70.8066 204.213 71.0482C204.643 70.8066 204.817 70.2026 204.817 69.5314L206.2 69.8939C206.2 70.8872 205.448 71.4778 204.884 71.5986C205.22 71.9744 205.395 72.4577 205.395 73.008C205.395 74.3906 204.267 75.3302 202.562 75.3302C202.133 75.3302 201.743 75.2765 201.394 75.1557C201.099 75.2228 200.951 75.3436 200.951 75.545C200.951 75.8671 201.22 75.9745 201.972 75.9745H203.394ZM201.462 72.9812C201.448 73.5852 201.878 73.9879 202.549 74.0013C203.247 74.0013 203.69 73.612 203.703 73.0214C203.717 72.4308 203.26 72.0147 202.589 72.0013C201.918 72.0013 201.462 72.3905 201.462 72.9812ZM202.549 78.6323C203.864 78.6323 204.321 78.4041 204.321 77.9343C204.321 77.4913 203.972 77.3571 203.22 77.3571H202.025C201.113 77.3571 200.804 77.5987 200.804 77.9611C200.804 78.4041 201.274 78.6323 202.549 78.6323ZM210.298 70.6724C210.66 70.6724 210.956 70.7395 211.238 70.8603L210.754 72.6322C210.54 72.4845 210.311 72.404 210.029 72.404C209.331 72.404 208.727 72.9677 208.727 74.0282V77.0886H206.888V70.7529L208.325 70.6992C208.459 71.1154 208.553 71.8268 208.553 72.0952H208.607C208.848 71.2899 209.345 70.6724 210.298 70.6724ZM214.824 70.6724C216.824 70.6724 218.153 72.0147 218.153 73.9208C218.153 75.8269 216.824 77.1692 214.824 77.1692C212.811 77.1692 211.482 75.8269 211.482 73.9208C211.482 72.0147 212.811 70.6724 214.824 70.6724ZM214.824 75.6658C215.723 75.6658 216.287 74.9544 216.287 73.9208C216.287 72.9006 215.723 72.1758 214.824 72.1758C213.911 72.1758 213.347 72.9006 213.347 73.9208C213.347 74.9544 213.911 75.6658 214.824 75.6658ZM223.476 70.7529H225.315V77.0886L223.825 77.1423C223.718 76.7262 223.624 76.0819 223.624 75.8805H223.597C223.288 76.6188 222.698 77.1692 221.637 77.1692C220.067 77.1692 219.261 76.0819 219.261 74.6456V70.7529H221.114V74.3235C221.114 75.0752 221.49 75.5852 222.228 75.5852C223.06 75.5852 223.476 74.7664 223.476 74.0282V70.7529ZM230.612 70.6724C232.331 70.6724 233.418 72.0281 233.418 73.9208C233.418 75.9879 232.169 77.1692 230.518 77.1692C229.619 77.1692 229.002 76.8067 228.639 76.2967V79.8269H226.8V70.7529L228.25 70.6992C228.384 71.0885 228.478 71.7731 228.465 71.9476H228.505C228.841 71.2093 229.498 70.6724 230.612 70.6724ZM230.143 75.6255C231.002 75.6255 231.552 74.9544 231.552 73.9208C231.552 72.8872 230.988 72.216 230.102 72.216C229.216 72.216 228.639 72.9677 228.639 73.706V74.1355C228.639 74.8335 229.163 75.6255 230.143 75.6255ZM168.999 95.1624L169.093 96.102C169.093 96.102 168.757 96.1692 168.368 96.1692C165.885 96.1692 166.623 92.6792 164.314 92.6792H163.603V96.0886H162.381V87.2294H165.052C167.12 87.2294 168.301 88.0616 168.301 89.9811C168.301 91.216 167.482 92.0751 166.314 92.4644C167.455 93.1087 167.469 95.1893 168.73 95.1893C168.891 95.1893 168.999 95.1624 168.999 95.1624ZM163.603 91.7261H164.878C166.126 91.7261 167.066 91.1087 167.066 89.9811C167.066 88.8402 166.341 88.263 164.999 88.263H163.603V91.7261ZM175.708 93.2429H170.956C171.077 94.4107 171.869 95.1759 173.131 95.1759C174.097 95.1759 174.647 94.7195 174.929 94.3436L175.654 95.0014C175.064 95.7799 174.124 96.1692 173.037 96.1692C171.01 96.1692 169.735 94.8671 169.735 92.9342C169.735 91.0415 170.956 89.6724 172.876 89.6724C174.741 89.6724 175.762 90.9744 175.762 92.6389C175.762 93.0147 175.708 93.2429 175.708 93.2429ZM172.876 90.6657C171.855 90.6657 171.157 91.3771 170.983 92.3973H174.554C174.54 91.3503 173.882 90.6657 172.876 90.6657ZM180.033 89.6724C181.658 89.6724 182.691 90.6254 182.691 91.8335C182.691 92.102 182.651 92.263 182.651 92.263L181.55 92.3436C181.564 92.2765 181.577 92.1557 181.577 92.008C181.577 91.2295 181.013 90.6657 180.06 90.6657C178.866 90.6657 178.06 91.565 178.06 92.9342C178.06 94.2765 178.825 95.1759 180.168 95.1759C181.362 95.1759 181.872 94.6255 182.114 94.3302L182.812 95.0819C182.221 95.7933 181.268 96.1692 180.127 96.1692C178.154 96.1692 176.852 94.8671 176.852 92.961C176.852 91.0281 178.168 89.6724 180.033 89.6724ZM189.813 93.2429H185.061C185.182 94.4107 185.974 95.1759 187.235 95.1759C188.202 95.1759 188.752 94.7195 189.034 94.3436L189.759 95.0014C189.168 95.7799 188.229 96.1692 187.141 96.1692C185.115 96.1692 183.839 94.8671 183.839 92.9342C183.839 91.0415 185.061 89.6724 186.98 89.6724C188.846 89.6724 189.866 90.9744 189.866 92.6389C189.866 93.0147 189.813 93.2429 189.813 93.2429ZM186.98 90.6657C185.96 90.6657 185.262 91.3771 185.088 92.3973H188.658C188.645 91.3503 187.987 90.6657 186.98 90.6657ZM194.635 89.6724C196.152 89.6724 197.105 90.6925 197.105 92.2094V96.0886H195.91V92.2094C195.91 91.2832 195.387 90.6657 194.434 90.6657C193.118 90.6657 192.527 91.8604 192.527 92.7731V96.0886H191.346V89.7529L192.178 89.7127C192.286 90.1959 192.34 90.9073 192.34 91.1892H192.38C192.715 90.3972 193.427 89.6724 194.635 89.6724ZM202.805 94.8L203.181 95.753C203.181 95.753 202.55 96.1692 201.516 96.1692C199.879 96.1692 199.221 95.2967 199.221 93.6725V90.706H198.214V89.7529H199.221V87.8737L200.416 87.8066V89.7529H202.872V90.706H200.416V93.6322C200.416 94.6524 200.778 95.1624 201.637 95.1624C202.375 95.1624 202.805 94.8 202.805 94.8ZM204.245 96.0886V86.6119H205.426V96.0886H204.245ZM210.131 97.2162C209.768 98.1558 209.178 98.894 208.01 98.894C207.406 98.894 207.03 98.6927 207.03 98.6927L207.245 97.7128C207.245 97.7128 207.54 97.8739 207.929 97.8739C208.587 97.8739 208.869 97.4444 209.084 96.8806L209.325 96.2497L206.641 89.7529H207.97L209.715 94.1825C209.849 94.5047 209.876 94.6121 209.93 94.8805H209.943C209.997 94.5852 210.05 94.4644 210.158 94.1825L211.93 89.7529H213.138L210.131 97.2162ZM221.938 86.6119H223.119V96.0886L222.246 96.1289C222.179 95.6859 222.112 94.9074 222.126 94.6524H222.085C221.723 95.498 220.931 96.1692 219.709 96.1692C217.924 96.1692 216.689 94.8671 216.689 92.9074C216.689 90.961 217.924 89.6724 219.776 89.6724C220.81 89.6724 221.521 90.1288 221.938 90.7462V86.6119ZM219.924 95.1759C221.266 95.1759 221.938 93.9812 221.938 93.0416V92.7865C221.938 91.8335 221.307 90.6657 219.844 90.6657C218.662 90.6657 217.897 91.565 217.897 92.9074C217.897 94.2631 218.676 95.1759 219.924 95.1759ZM226.472 87.6992C226.472 88.1556 226.096 88.4912 225.64 88.4912C225.184 88.4912 224.821 88.1556 224.821 87.6992C224.821 87.2428 225.184 86.8938 225.64 86.8938C226.096 86.8938 226.472 87.2428 226.472 87.6992ZM225.009 96.0886V89.7529L226.204 89.7127V96.0886H225.009ZM233.834 95.0819L233.901 96.0752C233.901 96.0752 233.592 96.1557 233.257 96.1557C232.599 96.1557 232.116 95.847 232.116 95.1087V95.0953H232.089C231.915 95.4175 231.364 96.1692 229.888 96.1692C228.492 96.1692 227.74 95.4443 227.74 94.4107C227.74 93.0282 229.055 92.4778 231.847 92.4778H232.035V92.0751C232.035 91.216 231.512 90.6657 230.465 90.6657C229.565 90.6657 229.015 91.0281 229.015 91.6859C229.015 91.8335 229.042 91.914 229.082 92.008L227.968 92.1959C227.968 92.1959 227.888 91.9543 227.888 91.6456C227.888 90.4912 228.881 89.6724 230.492 89.6724C232.21 89.6724 233.217 90.5986 233.217 92.0617V94.6255C233.217 94.9745 233.311 95.1087 233.606 95.1087C233.686 95.1087 233.78 95.0953 233.834 95.0819ZM230.129 95.1759C231.364 95.1759 232.035 94.4913 232.035 93.9007V93.2966H231.847C229.686 93.2966 228.948 93.6859 228.948 94.3839C228.948 94.8805 229.324 95.1759 230.129 95.1759ZM238.79 95.1356C240.293 95.1356 241.192 95.753 241.192 96.9209C241.192 98.0081 240.306 98.894 237.89 98.894C235.608 98.894 234.561 98.2229 234.561 97.149C234.561 96.5316 234.924 96.0618 235.635 95.8067C235.259 95.592 235.018 95.2564 235.018 94.7329C235.018 94.2094 235.394 93.847 235.85 93.6725C235.367 93.2698 235.098 92.6926 235.098 91.9946C235.098 90.612 236.172 89.6858 237.796 89.6858C238.548 89.6858 239.192 89.8872 239.662 90.2362C240.118 90.0214 240.32 89.4979 240.32 88.7194L241.327 88.9341C241.327 90.1422 240.521 90.612 240.105 90.6791C240.373 91.0415 240.521 91.4845 240.521 91.9946C240.521 93.3772 239.434 94.3034 237.81 94.3034C237.394 94.3034 237.004 94.2362 236.669 94.1289C236.32 94.1825 236.092 94.3302 236.092 94.5852C236.092 95.0282 236.602 95.1356 237.474 95.1356H238.79ZM237.81 90.6657C236.897 90.6657 236.293 91.1892 236.293 91.9946C236.293 92.8 236.883 93.3235 237.796 93.3235C238.722 93.3235 239.326 92.8 239.326 91.9946C239.326 91.1892 238.722 90.6657 237.81 90.6657ZM237.89 97.9007C239.42 97.9007 240.024 97.6054 240.024 96.9209C240.024 96.2765 239.514 96.1423 238.561 96.1423H237.152C236.038 96.1423 235.729 96.5182 235.729 96.9745C235.729 97.6189 236.347 97.9007 237.89 97.9007ZM245.679 89.6724C247.196 89.6724 248.149 90.6925 248.149 92.2094V96.0886H246.954V92.2094C246.954 91.2832 246.431 90.6657 245.478 90.6657C244.162 90.6657 243.572 91.8604 243.572 92.7731V96.0886H242.391V89.7529L243.223 89.7127C243.33 90.1959 243.384 90.9073 243.384 91.1892H243.424C243.76 90.3972 244.471 89.6724 245.679 89.6724ZM252.84 89.6724C254.8 89.6724 256.102 91.0281 256.102 92.9476C256.102 94.8671 254.8 96.1692 252.84 96.1692C250.88 96.1692 249.578 94.8671 249.578 92.9476C249.578 91.0281 250.88 89.6724 252.84 89.6724ZM252.84 95.1759C254.075 95.1759 254.894 94.2631 254.894 92.9476C254.894 91.6322 254.075 90.6657 252.84 90.6657C251.605 90.6657 250.786 91.6322 250.786 92.9476C250.786 94.2631 251.605 95.1759 252.84 95.1759ZM261.167 92.0214C261.194 91.9275 261.207 91.8067 261.207 91.7127C261.207 91.055 260.63 90.6657 259.798 90.6657C259.006 90.6657 258.549 91.0281 258.549 91.5516C258.549 93.0416 262.362 91.9677 262.402 94.3705C262.415 95.5114 261.328 96.1692 259.784 96.1692C258.227 96.1692 257.409 95.5114 257.046 95.2161L257.771 94.4107C258.039 94.6658 258.831 95.1759 259.798 95.1759C260.737 95.1759 261.194 94.8403 261.194 94.357C261.194 93.055 257.341 93.8872 257.341 91.5382C257.341 90.4912 258.335 89.6724 259.825 89.6724C261.315 89.6724 262.308 90.4509 262.308 91.4979C262.308 91.753 262.254 91.9409 262.254 91.9409L261.167 92.0214ZM269.512 93.2429H264.76C264.881 94.4107 265.673 95.1759 266.935 95.1759C267.901 95.1759 268.452 94.7195 268.734 94.3436L269.458 95.0014C268.868 95.7799 267.928 96.1692 266.841 96.1692C264.814 96.1692 263.539 94.8671 263.539 92.9342C263.539 91.0415 264.76 89.6724 266.68 89.6724C268.546 89.6724 269.566 90.9744 269.566 92.6389C269.566 93.0147 269.512 93.2429 269.512 93.2429ZM266.68 90.6657C265.66 90.6657 264.962 91.3771 264.787 92.3973H268.358C268.344 91.3503 267.687 90.6657 266.68 90.6657ZM275.918 86.6119H277.1V96.0886L276.227 96.1289C276.16 95.6859 276.093 94.9074 276.106 94.6524H276.066C275.704 95.498 274.912 96.1692 273.69 96.1692C271.905 96.1692 270.67 94.8671 270.67 92.9074C270.67 90.961 271.905 89.6724 273.757 89.6724C274.791 89.6724 275.502 90.1288 275.918 90.7462V86.6119ZM273.905 95.1759C275.247 95.1759 275.918 93.9812 275.918 93.0416V92.7865C275.918 91.8335 275.287 90.6657 273.824 90.6657C272.643 90.6657 271.878 91.565 271.878 92.9074C271.878 94.2631 272.656 95.1759 273.905 95.1759ZM166.542 107.753H167.724V114.089L166.865 114.129C166.757 113.646 166.703 112.934 166.703 112.787H166.69C166.341 113.552 165.67 114.169 164.583 114.169C163.066 114.169 162.113 113.149 162.113 111.632V107.753H163.307V111.632C163.307 112.558 163.831 113.176 164.784 113.176C165.952 113.176 166.542 111.981 166.542 111.068V107.753ZM173.17 110.021C173.197 109.927 173.21 109.807 173.21 109.713C173.21 109.055 172.633 108.666 171.801 108.666C171.009 108.666 170.552 109.028 170.552 109.552C170.552 111.042 174.364 109.968 174.405 112.37C174.418 113.511 173.331 114.169 171.787 114.169C170.23 114.169 169.411 113.511 169.049 113.216L169.774 112.411C170.042 112.666 170.834 113.176 171.801 113.176C172.74 113.176 173.197 112.84 173.197 112.357C173.197 111.055 169.344 111.887 169.344 109.538C169.344 108.491 170.338 107.672 171.827 107.672C173.317 107.672 174.311 108.451 174.311 109.498C174.311 109.753 174.257 109.941 174.257 109.941L173.17 110.021ZM181.515 111.243H176.763C176.884 112.411 177.676 113.176 178.938 113.176C179.904 113.176 180.455 112.719 180.736 112.344L181.461 113.001C180.871 113.78 179.931 114.169 178.844 114.169C176.817 114.169 175.542 112.867 175.542 110.934C175.542 109.042 176.763 107.672 178.683 107.672C180.548 107.672 181.569 108.974 181.569 110.639C181.569 111.015 181.515 111.243 181.515 111.243ZM178.683 108.666C177.663 108.666 176.965 109.377 176.79 110.397H180.361C180.347 109.35 179.689 108.666 178.683 108.666ZM185.814 107.672C186.096 107.672 186.391 107.713 186.633 107.78L186.337 108.974C186.203 108.894 186.015 108.827 185.747 108.827C185.035 108.827 184.23 109.458 184.23 110.773V114.089H183.049V107.753L183.881 107.713C183.988 108.196 184.042 108.907 184.042 109.189H184.096C184.337 108.357 184.874 107.672 185.814 107.672ZM191.155 110.021C191.181 109.927 191.195 109.807 191.195 109.713C191.195 109.055 190.618 108.666 189.785 108.666C188.993 108.666 188.537 109.028 188.537 109.552C188.537 111.042 192.349 109.968 192.39 112.37C192.403 113.511 191.316 114.169 189.772 114.169C188.215 114.169 187.396 113.511 187.034 113.216L187.759 112.411C188.027 112.666 188.819 113.176 189.785 113.176C190.725 113.176 191.181 112.84 191.181 112.357C191.181 111.055 187.329 111.887 187.329 109.538C187.329 108.491 188.322 107.672 189.812 107.672C191.302 107.672 192.296 108.451 192.296 109.498C192.296 109.753 192.242 109.941 192.242 109.941L191.155 110.021ZM204.769 107.753H205.977L204.031 114.089H202.621L201.293 109.699C201.252 109.552 201.212 109.364 201.199 109.256H201.172C201.158 109.364 201.118 109.552 201.078 109.699L199.695 114.089H198.313L196.246 107.753H197.574L198.836 112.183C198.93 112.532 199.024 112.773 199.051 112.881H199.078C199.105 112.773 199.199 112.478 199.279 112.183L200.581 107.753H201.803L203.105 112.142C203.185 112.438 203.252 112.773 203.279 112.881H203.306C203.333 112.773 203.4 112.491 203.507 112.142L204.769 107.753ZM210.51 107.672C212.026 107.672 212.979 108.693 212.979 110.209V114.089H211.785V110.209C211.785 109.283 211.261 108.666 210.308 108.666C208.993 108.666 208.402 109.834 208.402 110.787V114.089H207.207V104.612H208.375V108.867H208.402C208.778 108.209 209.449 107.672 210.51 107.672ZM217.67 107.672C219.63 107.672 220.932 109.028 220.932 110.948C220.932 112.867 219.63 114.169 217.67 114.169C215.71 114.169 214.408 112.867 214.408 110.948C214.408 109.028 215.71 107.672 217.67 107.672ZM217.67 113.176C218.905 113.176 219.724 112.263 219.724 110.948C219.724 109.632 218.905 108.666 217.67 108.666C216.435 108.666 215.616 109.632 215.616 110.948C215.616 112.263 216.435 113.176 217.67 113.176ZM231.199 113.082L231.266 114.075C231.266 114.075 230.958 114.156 230.622 114.156C229.964 114.156 229.481 113.847 229.481 113.109V113.095H229.454C229.28 113.417 228.729 114.169 227.253 114.169C225.857 114.169 225.105 113.444 225.105 112.411C225.105 111.028 226.421 110.478 229.213 110.478H229.401V110.075C229.401 109.216 228.877 108.666 227.83 108.666C226.931 108.666 226.38 109.028 226.38 109.686C226.38 109.834 226.407 109.914 226.447 110.008L225.333 110.196C225.333 110.196 225.253 109.954 225.253 109.646C225.253 108.491 226.246 107.672 227.857 107.672C229.575 107.672 230.582 108.599 230.582 110.062V112.626C230.582 112.975 230.676 113.109 230.971 113.109C231.052 113.109 231.146 113.095 231.199 113.082ZM227.494 113.176C228.729 113.176 229.401 112.491 229.401 111.901V111.297H229.213C227.051 111.297 226.313 111.686 226.313 112.384C226.313 112.881 226.689 113.176 227.494 113.176ZM235.403 107.672C235.685 107.672 235.98 107.713 236.222 107.78L235.927 108.974C235.792 108.894 235.604 108.827 235.336 108.827C234.625 108.827 233.819 109.458 233.819 110.773V114.089H232.638V107.753L233.47 107.713C233.578 108.196 233.631 108.907 233.631 109.189H233.685C233.927 108.357 234.463 107.672 235.403 107.672ZM242.653 111.243H237.901C238.022 112.411 238.814 113.176 240.076 113.176C241.042 113.176 241.592 112.719 241.874 112.344L242.599 113.001C242.009 113.78 241.069 114.169 239.982 114.169C237.955 114.169 236.68 112.867 236.68 110.934C236.68 109.042 237.901 107.672 239.821 107.672C241.686 107.672 242.707 108.974 242.707 110.639C242.707 111.015 242.653 111.243 242.653 111.243ZM239.821 108.666C238.8 108.666 238.102 109.377 237.928 110.397H241.498C241.485 109.35 240.827 108.666 239.821 108.666ZM167.912 132.082L167.979 133.075C167.979 133.075 167.67 133.156 167.334 133.156C166.677 133.156 166.193 132.847 166.193 132.109V132.095H166.167C165.992 132.417 165.442 133.169 163.965 133.169C162.569 133.169 161.817 132.444 161.817 131.411C161.817 130.028 163.133 129.478 165.925 129.478H166.113V129.075C166.113 128.216 165.589 127.666 164.542 127.666C163.643 127.666 163.093 128.028 163.093 128.686C163.093 128.834 163.119 128.914 163.16 129.008L162.046 129.196C162.046 129.196 161.965 128.954 161.965 128.646C161.965 127.491 162.958 126.672 164.569 126.672C166.287 126.672 167.294 127.599 167.294 129.062V131.626C167.294 131.975 167.388 132.109 167.683 132.109C167.764 132.109 167.858 132.095 167.912 132.082ZM164.207 132.176C165.442 132.176 166.113 131.491 166.113 130.901V130.297H165.925C163.764 130.297 163.026 130.686 163.026 131.384C163.026 131.881 163.401 132.176 164.207 132.176ZM174.223 123.612H175.404V133.089L174.531 133.129C174.464 132.686 174.397 131.907 174.411 131.652H174.37C174.008 132.498 173.216 133.169 171.995 133.169C170.209 133.169 168.974 131.867 168.974 129.907C168.974 127.961 170.209 126.672 172.062 126.672C173.095 126.672 173.807 127.129 174.223 127.746V123.612ZM172.209 132.176C173.552 132.176 174.223 130.981 174.223 130.042V129.787C174.223 128.834 173.592 127.666 172.129 127.666C170.948 127.666 170.182 128.565 170.182 129.907C170.182 131.263 170.961 132.176 172.209 132.176ZM178.838 124.699C178.838 125.156 178.462 125.491 178.006 125.491C177.549 125.491 177.187 125.156 177.187 124.699C177.187 124.243 177.549 123.894 178.006 123.894C178.462 123.894 178.838 124.243 178.838 124.699ZM175.522 134.686C175.522 134.686 175.791 134.887 176.261 134.887C177.066 134.887 177.388 134.444 177.388 133.639V126.753L178.583 126.713V133.411C178.583 134.981 177.871 135.881 176.368 135.881C175.549 135.881 175.16 135.505 175.16 135.505L175.522 134.686ZM184.842 126.753H186.023V133.089L185.164 133.129C185.057 132.646 185.003 131.934 185.003 131.787H184.989C184.64 132.552 183.969 133.169 182.882 133.169C181.365 133.169 180.412 132.149 180.412 130.632V126.753H181.607V130.632C181.607 131.558 182.13 132.176 183.083 132.176C184.251 132.176 184.842 130.981 184.842 130.068V126.753ZM191.469 129.021C191.496 128.927 191.509 128.807 191.509 128.713C191.509 128.055 190.932 127.666 190.1 127.666C189.308 127.666 188.852 128.028 188.852 128.552C188.852 130.042 192.664 128.968 192.704 131.37C192.718 132.511 191.63 133.169 190.087 133.169C188.53 133.169 187.711 132.511 187.348 132.216L188.073 131.411C188.342 131.666 189.134 132.176 190.1 132.176C191.04 132.176 191.496 131.84 191.496 131.357C191.496 130.055 187.644 130.887 187.644 128.538C187.644 127.491 188.637 126.672 190.127 126.672C191.617 126.672 192.61 127.451 192.61 128.498C192.61 128.753 192.556 128.941 192.556 128.941L191.469 129.021ZM198.125 131.8L198.501 132.753C198.501 132.753 197.87 133.169 196.837 133.169C195.199 133.169 194.541 132.297 194.541 130.672V127.706H193.535V126.753H194.541V124.874L195.736 124.807V126.753H198.192V127.706H195.736V130.632C195.736 131.652 196.098 132.162 196.957 132.162C197.696 132.162 198.125 131.8 198.125 131.8ZM201.029 124.699C201.029 125.156 200.653 125.491 200.196 125.491C199.74 125.491 199.378 125.156 199.378 124.699C199.378 124.243 199.74 123.894 200.196 123.894C200.653 123.894 201.029 124.243 201.029 124.699ZM199.566 133.089V126.753L200.76 126.713V133.089H199.566ZM205.947 126.672C207.464 126.672 208.417 127.693 208.417 129.209V133.089H207.223V129.209C207.223 128.283 206.699 127.666 205.746 127.666C204.431 127.666 203.84 128.86 203.84 129.773V133.089H202.659V126.753L203.491 126.713C203.598 127.196 203.652 127.907 203.652 128.189H203.692C204.028 127.397 204.739 126.672 205.947 126.672ZM213.752 132.136C215.256 132.136 216.155 132.753 216.155 133.921C216.155 135.008 215.269 135.894 212.853 135.894C210.571 135.894 209.524 135.223 209.524 134.149C209.524 133.532 209.887 133.062 210.598 132.807C210.222 132.592 209.98 132.256 209.98 131.733C209.98 131.209 210.356 130.847 210.813 130.672C210.329 130.27 210.061 129.693 210.061 128.995C210.061 127.612 211.135 126.686 212.759 126.686C213.511 126.686 214.155 126.887 214.625 127.236C215.081 127.021 215.283 126.498 215.283 125.719L216.289 125.934C216.289 127.142 215.484 127.612 215.068 127.679C215.336 128.042 215.484 128.485 215.484 128.995C215.484 130.377 214.397 131.303 212.772 131.303C212.356 131.303 211.967 131.236 211.632 131.129C211.283 131.183 211.054 131.33 211.054 131.585C211.054 132.028 211.564 132.136 212.437 132.136H213.752ZM212.772 127.666C211.86 127.666 211.256 128.189 211.256 128.995C211.256 129.8 211.846 130.323 212.759 130.323C213.685 130.323 214.289 129.8 214.289 128.995C214.289 128.189 213.685 127.666 212.772 127.666ZM212.853 134.901C214.383 134.901 214.987 134.605 214.987 133.921C214.987 133.277 214.477 133.142 213.524 133.142H212.115C211.001 133.142 210.692 133.518 210.692 133.975C210.692 134.619 211.309 134.901 212.853 134.901ZM224.211 131.8L224.587 132.753C224.587 132.753 223.956 133.169 222.923 133.169C221.285 133.169 220.627 132.297 220.627 130.672V127.706H219.62V126.753H220.627V124.874L221.822 124.807V126.753H224.278V127.706H221.822V130.632C221.822 131.652 222.184 132.162 223.043 132.162C223.782 132.162 224.211 131.8 224.211 131.8ZM228.419 126.672C230.379 126.672 231.681 128.028 231.681 129.948C231.681 131.867 230.379 133.169 228.419 133.169C226.459 133.169 225.157 131.867 225.157 129.948C225.157 128.028 226.459 126.672 228.419 126.672ZM228.419 132.176C229.654 132.176 230.472 131.263 230.472 129.948C230.472 128.632 229.654 127.666 228.419 127.666C227.184 127.666 226.365 128.632 226.365 129.948C226.365 131.263 227.184 132.176 228.419 132.176ZM240.033 131.8L240.409 132.753C240.409 132.753 239.778 133.169 238.744 133.169C237.107 133.169 236.449 132.297 236.449 130.672V127.706H235.442V126.753H236.449V124.874L237.644 124.807V126.753H240.1V127.706H237.644V130.632C237.644 131.652 238.006 132.162 238.865 132.162C239.604 132.162 240.033 131.8 240.033 131.8ZM247.192 132.082L247.259 133.075C247.259 133.075 246.95 133.156 246.614 133.156C245.957 133.156 245.473 132.847 245.473 132.109V132.095H245.447C245.272 132.417 244.722 133.169 243.245 133.169C241.849 133.169 241.097 132.444 241.097 131.411C241.097 130.028 242.413 129.478 245.205 129.478H245.393V129.075C245.393 128.216 244.869 127.666 243.822 127.666C242.923 127.666 242.373 128.028 242.373 128.686C242.373 128.834 242.4 128.914 242.44 129.008L241.326 129.196C241.326 129.196 241.245 128.954 241.245 128.646C241.245 127.491 242.238 126.672 243.849 126.672C245.567 126.672 246.574 127.599 246.574 129.062V131.626C246.574 131.975 246.668 132.109 246.963 132.109C247.044 132.109 247.138 132.095 247.192 132.082ZM243.487 132.176C244.722 132.176 245.393 131.491 245.393 130.901V130.297H245.205C243.044 130.297 242.306 130.686 242.306 131.384C242.306 131.881 242.681 132.176 243.487 132.176ZM252.993 133.089L250.496 130.176H249.811V133.089H248.63V123.612H249.811V129.223H250.684L252.858 126.753H254.214L251.53 129.719L254.483 133.089H252.993ZM256.884 124.699C256.884 125.156 256.508 125.491 256.052 125.491C255.595 125.491 255.233 125.156 255.233 124.699C255.233 124.243 255.595 123.894 256.052 123.894C256.508 123.894 256.884 124.243 256.884 124.699ZM255.421 133.089V126.753L256.615 126.713V133.089H255.421ZM261.803 126.672C263.319 126.672 264.273 127.693 264.273 129.209V133.089H263.078V129.209C263.078 128.283 262.554 127.666 261.601 127.666C260.286 127.666 259.695 128.86 259.695 129.773V133.089H258.514V126.753L259.346 126.713C259.454 127.196 259.507 127.907 259.507 128.189H259.548C259.883 127.397 260.595 126.672 261.803 126.672ZM269.608 132.136C271.111 132.136 272.01 132.753 272.01 133.921C272.01 135.008 271.124 135.894 268.708 135.894C266.426 135.894 265.379 135.223 265.379 134.149C265.379 133.532 265.742 133.062 266.453 132.807C266.077 132.592 265.836 132.256 265.836 131.733C265.836 131.209 266.212 130.847 266.668 130.672C266.185 130.27 265.916 129.693 265.916 128.995C265.916 127.612 266.99 126.686 268.614 126.686C269.366 126.686 270.01 126.887 270.48 127.236C270.936 127.021 271.138 126.498 271.138 125.719L272.145 125.934C272.145 127.142 271.339 127.612 270.923 127.679C271.191 128.042 271.339 128.485 271.339 128.995C271.339 130.377 270.252 131.303 268.628 131.303C268.212 131.303 267.822 131.236 267.487 131.129C267.138 131.183 266.91 131.33 266.91 131.585C266.91 132.028 267.42 132.136 268.292 132.136H269.608ZM268.628 127.666C267.715 127.666 267.111 128.189 267.111 128.995C267.111 129.8 267.701 130.323 268.614 130.323C269.54 130.323 270.144 129.8 270.144 128.995C270.144 128.189 269.54 127.666 268.628 127.666ZM268.708 134.901C270.238 134.901 270.842 134.605 270.842 133.921C270.842 133.277 270.332 133.142 269.379 133.142H267.97C266.856 133.142 266.547 133.518 266.547 133.975C266.547 134.619 267.165 134.901 268.708 134.901ZM167.052 141.612H168.234V151.089L167.361 151.129C167.294 150.686 167.227 149.907 167.24 149.652H167.2C166.838 150.498 166.046 151.169 164.824 151.169C163.039 151.169 161.804 149.867 161.804 147.907C161.804 145.961 163.039 144.672 164.891 144.672C165.925 144.672 166.636 145.129 167.052 145.746V141.612ZM165.039 150.176C166.381 150.176 167.052 148.981 167.052 148.042V147.787C167.052 146.834 166.422 145.666 164.958 145.666C163.777 145.666 163.012 146.565 163.012 147.907C163.012 149.263 163.791 150.176 165.039 150.176ZM175.842 150.082L175.909 151.075C175.909 151.075 175.601 151.156 175.265 151.156C174.607 151.156 174.124 150.847 174.124 150.109V150.095H174.097C173.923 150.417 173.372 151.169 171.896 151.169C170.5 151.169 169.748 150.444 169.748 149.411C169.748 148.028 171.064 147.478 173.856 147.478H174.043V147.075C174.043 146.216 173.52 145.666 172.473 145.666C171.574 145.666 171.023 146.028 171.023 146.686C171.023 146.834 171.05 146.914 171.09 147.008L169.976 147.196C169.976 147.196 169.896 146.954 169.896 146.646C169.896 145.491 170.889 144.672 172.5 144.672C174.218 144.672 175.225 145.599 175.225 147.062V149.626C175.225 149.975 175.319 150.109 175.614 150.109C175.694 150.109 175.788 150.095 175.842 150.082ZM172.137 150.176C173.372 150.176 174.043 149.491 174.043 148.901V148.297H173.856C171.694 148.297 170.956 148.686 170.956 149.384C170.956 149.881 171.332 150.176 172.137 150.176ZM178.757 142.699C178.757 143.156 178.382 143.491 177.925 143.491C177.469 143.491 177.106 143.156 177.106 142.699C177.106 142.243 177.469 141.894 177.925 141.894C178.382 141.894 178.757 142.243 178.757 142.699ZM177.294 151.089V144.753L178.489 144.713V151.089H177.294ZM180.401 151.089V141.612H181.582V151.089H180.401ZM186.287 152.216C185.924 153.156 185.334 153.894 184.166 153.894C183.562 153.894 183.186 153.693 183.186 153.693L183.401 152.713C183.401 152.713 183.696 152.874 184.085 152.874C184.743 152.874 185.025 152.444 185.24 151.881L185.481 151.25L182.797 144.753H184.125L185.87 149.183C186.005 149.505 186.032 149.612 186.085 149.881H186.099C186.152 149.585 186.206 149.464 186.313 149.183L188.085 144.753H189.293L186.287 152.216ZM200.845 144.699C202.362 144.699 203.315 145.719 203.315 147.236V151.089H202.12V147.236C202.12 146.31 201.597 145.693 200.644 145.693C199.449 145.693 198.858 146.86 198.858 147.773V151.089H197.664V147.236C197.664 146.31 197.14 145.693 196.187 145.693C194.993 145.693 194.402 146.86 194.402 147.773V151.089H193.221V144.753L194.053 144.713C194.16 145.196 194.214 145.907 194.214 146.189C194.536 145.384 195.234 144.699 196.389 144.699C197.516 144.699 198.335 145.263 198.67 146.176C199.006 145.37 199.704 144.699 200.845 144.699ZM210.721 148.243H205.969C206.09 149.411 206.882 150.176 208.143 150.176C209.11 150.176 209.66 149.719 209.942 149.344L210.667 150.001C210.076 150.78 209.137 151.169 208.049 151.169C206.023 151.169 204.747 149.867 204.747 147.934C204.747 146.042 205.969 144.672 207.888 144.672C209.754 144.672 210.774 145.974 210.774 147.639C210.774 148.015 210.721 148.243 210.721 148.243ZM207.888 145.666C206.868 145.666 206.17 146.377 205.996 147.397H209.566C209.553 146.35 208.895 145.666 207.888 145.666ZM217.127 141.612H218.308V151.089L217.436 151.129C217.368 150.686 217.301 149.907 217.315 149.652H217.274C216.912 150.498 216.12 151.169 214.899 151.169C213.113 151.169 211.878 149.867 211.878 147.907C211.878 145.961 213.113 144.672 214.966 144.672C215.999 144.672 216.711 145.129 217.127 145.746V141.612ZM215.113 150.176C216.456 150.176 217.127 148.981 217.127 148.042V147.787C217.127 146.834 216.496 145.666 215.033 145.666C213.852 145.666 213.086 146.565 213.086 147.907C213.086 149.263 213.865 150.176 215.113 150.176ZM221.661 142.699C221.661 143.156 221.286 143.491 220.829 143.491C220.373 143.491 220.01 143.156 220.01 142.699C220.01 142.243 220.373 141.894 220.829 141.894C221.286 141.894 221.661 142.243 221.661 142.699ZM220.198 151.089V144.753L221.393 144.713V151.089H220.198ZM226.084 144.672C227.708 144.672 228.741 145.625 228.741 146.834C228.741 147.102 228.701 147.263 228.701 147.263L227.6 147.344C227.614 147.276 227.627 147.156 227.627 147.008C227.627 146.229 227.063 145.666 226.11 145.666C224.916 145.666 224.11 146.565 224.11 147.934C224.11 149.277 224.875 150.176 226.218 150.176C227.412 150.176 227.923 149.626 228.164 149.33L228.862 150.082C228.272 150.793 227.318 151.169 226.178 151.169C224.204 151.169 222.902 149.867 222.902 147.961C222.902 146.028 224.218 144.672 226.084 144.672ZM235.997 150.082L236.064 151.075C236.064 151.075 235.755 151.156 235.42 151.156C234.762 151.156 234.279 150.847 234.279 150.109V150.095H234.252C234.077 150.417 233.527 151.169 232.051 151.169C230.655 151.169 229.903 150.444 229.903 149.411C229.903 148.028 231.218 147.478 234.01 147.478H234.198V147.075C234.198 146.216 233.675 145.666 232.628 145.666C231.728 145.666 231.178 146.028 231.178 146.686C231.178 146.834 231.205 146.914 231.245 147.008L230.131 147.196C230.131 147.196 230.05 146.954 230.05 146.646C230.05 145.491 231.044 144.672 232.655 144.672C234.373 144.672 235.379 145.599 235.379 147.062V149.626C235.379 149.975 235.473 150.109 235.769 150.109C235.849 150.109 235.943 150.095 235.997 150.082ZM232.292 150.176C233.527 150.176 234.198 149.491 234.198 148.901V148.297H234.01C231.849 148.297 231.111 148.686 231.111 149.384C231.111 149.881 231.487 150.176 232.292 150.176ZM241.239 149.8L241.615 150.753C241.615 150.753 240.984 151.169 239.95 151.169C238.313 151.169 237.655 150.297 237.655 148.672V145.706H236.648V144.753H237.655V142.874L238.85 142.807V144.753H241.306V145.706H238.85V148.632C238.85 149.652 239.212 150.162 240.071 150.162C240.81 150.162 241.239 149.8 241.239 149.8ZM244.142 142.699C244.142 143.156 243.767 143.491 243.31 143.491C242.854 143.491 242.491 143.156 242.491 142.699C242.491 142.243 242.854 141.894 243.31 141.894C243.767 141.894 244.142 142.243 244.142 142.699ZM242.679 151.089V144.753L243.874 144.713V151.089H242.679ZM248.645 144.672C250.605 144.672 251.907 146.028 251.907 147.948C251.907 149.867 250.605 151.169 248.645 151.169C246.685 151.169 245.383 149.867 245.383 147.948C245.383 146.028 246.685 144.672 248.645 144.672ZM248.645 150.176C249.88 150.176 250.699 149.263 250.699 147.948C250.699 146.632 249.88 145.666 248.645 145.666C247.41 145.666 246.591 146.632 246.591 147.948C246.591 149.263 247.41 150.176 248.645 150.176ZM256.69 144.672C258.207 144.672 259.16 145.693 259.16 147.209V151.089H257.966V147.209C257.966 146.283 257.442 145.666 256.489 145.666C255.174 145.666 254.583 146.86 254.583 147.773V151.089H253.402V144.753L254.234 144.713C254.341 145.196 254.395 145.907 254.395 146.189H254.435C254.771 145.397 255.482 144.672 256.69 144.672Z" fill="#C4D3AA"/>
<path d="M72.9004 247.562V240.273H70.2023V238.702H77.5045V240.273H74.8065V247.562H72.9004ZM83.3249 246.125L83.4054 247.521C83.4054 247.521 83.0161 247.642 82.5061 247.642C81.6336 247.642 81.1638 247.306 81.0429 246.635C80.8416 247.025 80.3181 247.642 79.0026 247.642C77.6335 247.642 76.8549 246.957 76.8549 245.897C76.8549 244.327 78.506 243.937 80.8684 243.884H80.949V243.602C80.949 242.957 80.5731 242.528 79.7946 242.528C79.0966 242.528 78.7073 242.81 78.7073 243.266C78.7073 243.36 78.7208 243.441 78.761 243.508L77.1503 243.776C77.1503 243.776 77.0697 243.508 77.0697 243.159C77.0697 241.951 78.1301 241.145 79.8751 241.145C81.7409 241.145 82.7477 242.085 82.7477 243.682V245.749C82.7477 246.045 82.8551 246.166 83.0967 246.166C83.1772 246.166 83.2578 246.152 83.3249 246.125ZM79.5261 246.286C80.4121 246.286 80.949 245.83 80.949 245.32V244.81H80.8684C79.3516 244.85 78.6402 245.065 78.6402 245.655C78.6402 246.072 78.9758 246.286 79.5261 246.286ZM87.8749 241.145C88.2373 241.145 88.5326 241.212 88.8145 241.333L88.3313 243.105C88.1165 242.957 87.8883 242.877 87.6064 242.877C86.9084 242.877 86.3044 243.441 86.3044 244.501V247.562H84.4654V241.226L85.9017 241.172C86.0359 241.588 86.1299 242.3 86.1299 242.568H86.1836C86.4252 241.763 86.9218 241.145 87.8749 241.145ZM93.0312 246.447C94.5749 246.447 95.6487 247.038 95.6487 248.327C95.6487 249.333 94.9105 250.38 92.1856 250.38C89.8634 250.38 88.8164 249.709 88.8164 248.729C88.8164 248.098 89.2191 247.669 89.8768 247.454C89.4338 247.186 89.152 246.783 89.152 246.259C89.152 245.642 89.5681 245.253 90.0647 245.078C89.6218 244.676 89.3801 244.125 89.3801 243.481C89.3801 242.098 90.4943 241.145 92.1856 241.145C92.8299 241.145 93.3936 241.28 93.85 241.521C94.2796 241.28 94.4541 240.675 94.4541 240.004L95.8366 240.367C95.8366 241.36 95.085 241.951 94.5212 242.071C94.8568 242.447 95.0313 242.931 95.0313 243.481C95.0313 244.863 93.9037 245.803 92.199 245.803C91.7695 245.803 91.3802 245.749 91.0312 245.629C90.7359 245.696 90.5882 245.817 90.5882 246.018C90.5882 246.34 90.8567 246.447 91.6084 246.447H93.0312ZM91.0983 243.454C91.0849 244.058 91.5144 244.461 92.1856 244.474C92.8836 244.474 93.3265 244.085 93.34 243.494C93.3534 242.904 92.897 242.488 92.2258 242.474C91.5547 242.474 91.0983 242.863 91.0983 243.454ZM92.1856 249.105C93.501 249.105 93.9574 248.877 93.9574 248.407C93.9574 247.964 93.6084 247.83 92.8567 247.83H91.6621C90.7493 247.83 90.4406 248.072 90.4406 248.434C90.4406 248.877 90.9104 249.105 92.1856 249.105ZM99.7224 246.246C100.622 246.246 101.092 245.817 101.36 245.521L102.233 246.528C101.803 247.092 100.877 247.642 99.5076 247.642C97.3734 247.642 96.0982 246.3 96.0982 244.394C96.0982 242.501 97.3734 241.145 99.3331 241.145C101.186 241.145 102.246 242.407 102.246 244.139C102.246 244.541 102.192 244.81 102.192 244.81H97.9237C98.0848 245.655 98.6754 246.246 99.7224 246.246ZM99.3331 242.541C98.6083 242.541 98.058 243.011 97.9237 243.857H100.568C100.555 243.105 100.098 242.541 99.3331 242.541ZM107.717 245.749L108.241 247.186C108.241 247.186 107.57 247.642 106.348 247.642C104.684 247.642 103.811 246.743 103.811 244.944V242.622H102.845V241.226H103.892V239.441L105.663 239.373V241.226H107.892V242.622H105.663V244.863C105.663 245.709 105.986 246.085 106.697 246.085C107.341 246.085 107.717 245.749 107.717 245.749ZM117.918 246.125L117.999 247.521C117.999 247.521 117.609 247.642 117.099 247.642C116.227 247.642 115.757 247.306 115.636 246.635C115.435 247.025 114.911 247.642 113.596 247.642C112.227 247.642 111.448 246.957 111.448 245.897C111.448 244.327 113.099 243.937 115.462 243.884H115.542V243.602C115.542 242.957 115.166 242.528 114.388 242.528C113.69 242.528 113.301 242.81 113.301 243.266C113.301 243.36 113.314 243.441 113.354 243.508L111.744 243.776C111.744 243.776 111.663 243.508 111.663 243.159C111.663 241.951 112.723 241.145 114.468 241.145C116.334 241.145 117.341 242.085 117.341 243.682V245.749C117.341 246.045 117.448 246.166 117.69 246.166C117.77 246.166 117.851 246.152 117.918 246.125ZM114.119 246.286C115.005 246.286 115.542 245.83 115.542 245.32V244.81H115.462C113.945 244.85 113.233 245.065 113.233 245.655C113.233 246.072 113.569 246.286 114.119 246.286ZM123.206 241.226H125.045V247.562L123.555 247.615C123.448 247.199 123.354 246.555 123.354 246.353H123.327C123.018 247.092 122.428 247.642 121.367 247.642C119.797 247.642 118.992 246.555 118.992 245.119V241.226H120.844V244.796C120.844 245.548 121.22 246.058 121.958 246.058C122.79 246.058 123.206 245.239 123.206 244.501V241.226ZM131 238.085H132.839V247.562L131.349 247.615C131.255 247.226 131.161 246.541 131.175 246.367H131.135C130.786 247.119 130.114 247.642 129.027 247.642C127.309 247.642 126.222 246.286 126.222 244.421C126.222 242.327 127.51 241.145 129.121 241.145C130.034 241.145 130.638 241.494 131 242.004V238.085ZM129.537 246.098C130.423 246.098 131 245.347 131 244.608V244.179C131 243.481 130.477 242.689 129.497 242.689C128.638 242.689 128.088 243.36 128.088 244.421C128.088 245.427 128.651 246.098 129.537 246.098ZM136.464 239.199C136.464 239.87 135.927 240.34 135.269 240.34C134.612 240.34 134.088 239.87 134.088 239.199C134.088 238.541 134.612 238.058 135.269 238.058C135.927 238.058 136.464 238.541 136.464 239.199ZM134.343 247.562V241.226L136.182 241.172V247.562H134.343ZM141.001 246.246C141.9 246.246 142.37 245.817 142.639 245.521L143.511 246.528C143.082 247.092 142.155 247.642 140.786 247.642C138.652 247.642 137.377 246.3 137.377 244.394C137.377 242.501 138.652 241.145 140.612 241.145C142.464 241.145 143.525 242.407 143.525 244.139C143.525 244.541 143.471 244.81 143.471 244.81H139.202C139.363 245.655 139.954 246.246 141.001 246.246ZM140.612 242.541C139.887 242.541 139.337 243.011 139.202 243.857H141.847C141.833 243.105 141.377 242.541 140.612 242.541ZM148.51 241.145C150.081 241.145 150.873 242.233 150.873 243.669V247.562H149.034V243.991C149.034 243.239 148.658 242.729 147.919 242.729C146.98 242.729 146.577 243.548 146.577 244.286V247.562H144.738V241.226L146.174 241.172C146.309 241.588 146.403 242.233 146.403 242.501H146.456C146.765 241.749 147.383 241.145 148.51 241.145ZM155.281 241.145C156.959 241.145 157.939 242.139 157.939 243.374C157.939 243.655 157.899 243.843 157.899 243.843L156.274 243.937C156.288 243.91 156.301 243.79 156.301 243.655C156.301 243.118 155.952 242.649 155.254 242.649C154.422 242.649 153.858 243.333 153.858 244.353C153.858 245.427 154.409 246.139 155.496 246.139C156.489 246.139 157.039 245.629 157.227 245.4L158.127 246.555C157.724 247.065 156.798 247.642 155.375 247.642C153.254 247.642 151.992 246.3 151.992 244.421C151.992 242.474 153.335 241.145 155.281 241.145ZM162.473 246.246C163.372 246.246 163.842 245.817 164.11 245.521L164.983 246.528C164.553 247.092 163.627 247.642 162.258 247.642C160.124 247.642 158.848 246.3 158.848 244.394C158.848 242.501 160.124 241.145 162.083 241.145C163.936 241.145 164.996 242.407 164.996 244.139C164.996 244.541 164.943 244.81 164.943 244.81H160.674C160.835 245.655 161.426 246.246 162.473 246.246ZM162.083 242.541C161.359 242.541 160.808 243.011 160.674 243.857H163.318C163.305 243.105 162.849 242.541 162.083 242.541ZM76.6857 258.736H72.4171V261.447H76.2159V262.481H72.4171V265.528H76.6857V266.562H71.1956V257.702H76.6857V258.736ZM82.6367 260.226H83.8448L81.2541 266.562H79.9655L77.348 260.226H78.6769L80.4219 264.655C80.5561 264.978 80.583 265.085 80.6367 265.353H80.6635C80.7172 265.058 80.7575 264.937 80.8649 264.655L82.6367 260.226ZM90.4081 263.716H85.6563C85.7771 264.884 86.5691 265.649 87.8308 265.649C88.7973 265.649 89.3476 265.192 89.6295 264.817L90.3544 265.474C89.7637 266.253 88.8241 266.642 87.7369 266.642C85.71 266.642 84.4348 265.34 84.4348 263.407C84.4348 261.514 85.6563 260.145 87.5758 260.145C89.4416 260.145 90.4617 261.447 90.4617 263.112C90.4617 263.488 90.4081 263.716 90.4081 263.716ZM87.5758 261.139C86.5556 261.139 85.8576 261.85 85.6831 262.87H89.2537C89.2402 261.823 88.5825 261.139 87.5758 261.139ZM94.7068 260.145C94.9887 260.145 95.284 260.186 95.5256 260.253L95.2303 261.447C95.0961 261.367 94.9081 261.3 94.6397 261.3C93.9283 261.3 93.1229 261.931 93.1229 263.246V266.562H91.9416V260.226L92.7739 260.186C92.8813 260.669 92.935 261.38 92.935 261.662H92.9886C93.2303 260.83 93.7672 260.145 94.7068 260.145ZM99.3744 267.689C99.0119 268.629 98.4213 269.367 97.2535 269.367C96.6495 269.367 96.2736 269.166 96.2736 269.166L96.4884 268.186C96.4884 268.186 96.7837 268.347 97.173 268.347C97.8307 268.347 98.1126 267.917 98.3274 267.353L98.569 266.723L95.8844 260.226H97.2132L98.9582 264.655C99.0925 264.978 99.1193 265.085 99.173 265.353H99.1864C99.2401 265.058 99.2938 264.937 99.4012 264.655L101.173 260.226H102.381L99.3744 267.689ZM106.179 260.145C108.139 260.145 109.441 261.501 109.441 263.421C109.441 265.34 108.139 266.642 106.179 266.642C104.219 266.642 102.917 265.34 102.917 263.421C102.917 261.501 104.219 260.145 106.179 260.145ZM106.179 265.649C107.414 265.649 108.233 264.736 108.233 263.421C108.233 262.105 107.414 261.139 106.179 261.139C104.944 261.139 104.125 262.105 104.125 263.421C104.125 264.736 104.944 265.649 106.179 265.649ZM114.224 260.145C115.741 260.145 116.694 261.165 116.694 262.682V266.562H115.5V262.682C115.5 261.756 114.976 261.139 114.023 261.139C112.708 261.139 112.117 262.333 112.117 263.246V266.562H110.936V260.226L111.768 260.186C111.875 260.669 111.929 261.38 111.929 261.662H111.969C112.305 260.87 113.016 260.145 114.224 260.145ZM124.11 263.716H119.358C119.479 264.884 120.271 265.649 121.533 265.649C122.499 265.649 123.05 265.192 123.331 264.817L124.056 265.474C123.466 266.253 122.526 266.642 121.439 266.642C119.412 266.642 118.137 265.34 118.137 263.407C118.137 261.514 119.358 260.145 121.278 260.145C123.143 260.145 124.164 261.447 124.164 263.112C124.164 263.488 124.11 263.716 124.11 263.716ZM121.278 261.139C120.258 261.139 119.56 261.85 119.385 262.87H122.956C122.942 261.823 122.284 261.139 121.278 261.139ZM136.51 260.226H137.718L135.772 266.562H134.363L133.034 262.172C132.994 262.025 132.953 261.837 132.94 261.729H132.913C132.9 261.837 132.859 262.025 132.819 262.172L131.436 266.562H130.054L127.987 260.226H129.316L130.577 264.655C130.671 265.004 130.765 265.246 130.792 265.353H130.819C130.846 265.246 130.94 264.951 131.02 264.655L132.322 260.226H133.544L134.846 264.615C134.926 264.91 134.994 265.246 135.02 265.353H135.047C135.074 265.246 135.141 264.964 135.249 264.615L136.51 260.226ZM142.251 260.145C143.768 260.145 144.721 261.165 144.721 262.682V266.562H143.526V262.682C143.526 261.756 143.002 261.139 142.049 261.139C140.734 261.139 140.143 262.306 140.143 263.259V266.562H138.949V257.085H140.116V261.34H140.143C140.519 260.682 141.19 260.145 142.251 260.145ZM149.411 260.145C151.371 260.145 152.673 261.501 152.673 263.421C152.673 265.34 151.371 266.642 149.411 266.642C147.451 266.642 146.149 265.34 146.149 263.421C146.149 261.501 147.451 260.145 149.411 260.145ZM149.411 265.649C150.646 265.649 151.465 264.736 151.465 263.421C151.465 262.105 150.646 261.139 149.411 261.139C148.176 261.139 147.357 262.105 147.357 263.421C147.357 264.736 148.176 265.649 149.411 265.649ZM161.025 265.273L161.401 266.226C161.401 266.226 160.77 266.642 159.737 266.642C158.099 266.642 157.441 265.77 157.441 264.145V261.179H156.435V260.226H157.441V258.347L158.636 258.279V260.226H161.092V261.179H158.636V264.105C158.636 265.125 158.998 265.635 159.857 265.635C160.596 265.635 161.025 265.273 161.025 265.273ZM168.184 265.555L168.251 266.548C168.251 266.548 167.942 266.629 167.607 266.629C166.949 266.629 166.466 266.32 166.466 265.582V265.568H166.439C166.264 265.89 165.714 266.642 164.237 266.642C162.841 266.642 162.09 265.917 162.09 264.884C162.09 263.501 163.405 262.951 166.197 262.951H166.385V262.548C166.385 261.689 165.862 261.139 164.815 261.139C163.915 261.139 163.365 261.501 163.365 262.159C163.365 262.306 163.392 262.387 163.432 262.481L162.318 262.669C162.318 262.669 162.237 262.427 162.237 262.118C162.237 260.964 163.231 260.145 164.841 260.145C166.56 260.145 167.566 261.071 167.566 262.535V265.098C167.566 265.447 167.66 265.582 167.956 265.582C168.036 265.582 168.13 265.568 168.184 265.555ZM164.479 265.649C165.714 265.649 166.385 264.964 166.385 264.374V263.77H166.197C164.036 263.77 163.298 264.159 163.298 264.857C163.298 265.353 163.674 265.649 164.479 265.649ZM173.985 266.562L171.488 263.649H170.804V266.562H169.622V257.085H170.804V262.696H171.676L173.851 260.226H175.206L172.522 263.192L175.475 266.562H173.985ZM181.669 263.716H176.917C177.038 264.884 177.83 265.649 179.092 265.649C180.058 265.649 180.609 265.192 180.891 264.817L181.616 265.474C181.025 266.253 180.085 266.642 178.998 266.642C176.971 266.642 175.696 265.34 175.696 263.407C175.696 261.514 176.917 260.145 178.837 260.145C180.703 260.145 181.723 261.447 181.723 263.112C181.723 263.488 181.669 263.716 181.669 263.716ZM178.837 261.139C177.817 261.139 177.119 261.85 176.944 262.87H180.515C180.501 261.823 179.844 261.139 178.837 261.139ZM186.773 262.494C186.8 262.4 186.814 262.28 186.814 262.186C186.814 261.528 186.236 261.139 185.404 261.139C184.612 261.139 184.156 261.501 184.156 262.025C184.156 263.514 187.968 262.441 188.008 264.843C188.022 265.984 186.934 266.642 185.391 266.642C183.834 266.642 183.015 265.984 182.652 265.689L183.377 264.884C183.646 265.139 184.438 265.649 185.404 265.649C186.344 265.649 186.8 265.313 186.8 264.83C186.8 263.528 182.948 264.36 182.948 262.011C182.948 260.964 183.941 260.145 185.431 260.145C186.921 260.145 187.914 260.924 187.914 261.971C187.914 262.226 187.861 262.414 187.861 262.414L186.773 262.494ZM78.6186 278.172C80.1354 278.172 81.0885 279.192 81.0885 280.709V284.562H79.8938V280.709C79.8938 279.783 79.3703 279.165 78.4173 279.165C77.2226 279.165 76.632 280.333 76.632 281.246V284.562H75.4373V280.709C75.4373 279.783 74.9138 279.165 73.9608 279.165C72.7661 279.165 72.1755 280.333 72.1755 281.246V284.562H70.9943V278.226L71.8265 278.186C71.9339 278.669 71.9876 279.38 71.9876 279.662C72.3098 278.857 73.0078 278.172 74.1621 278.172C75.2897 278.172 76.1085 278.736 76.4441 279.649C76.7796 278.843 77.4776 278.172 78.6186 278.172ZM88.4942 281.716H83.7425C83.8633 282.884 84.6552 283.649 85.917 283.649C86.8835 283.649 87.4338 283.192 87.7157 282.817L88.4405 283.474C87.8499 284.253 86.9103 284.642 85.823 284.642C83.7961 284.642 82.521 283.34 82.521 281.407C82.521 279.514 83.7425 278.145 85.662 278.145C87.5278 278.145 88.5479 279.447 88.5479 281.112C88.5479 281.488 88.4942 281.716 88.4942 281.716ZM85.662 279.139C84.6418 279.139 83.9438 279.85 83.7693 280.87H87.3398C87.3264 279.823 86.6687 279.139 85.662 279.139ZM94.9004 275.085H96.0816V284.562L95.2091 284.602C95.142 284.159 95.0749 283.38 95.0883 283.125H95.048C94.6856 283.971 93.8937 284.642 92.6722 284.642C90.8869 284.642 89.652 283.34 89.652 281.38C89.652 279.434 90.8869 278.145 92.7393 278.145C93.7728 278.145 94.4843 278.602 94.9004 279.219V275.085ZM92.8869 283.649C94.2292 283.649 94.9004 282.454 94.9004 281.514V281.259C94.9004 280.306 94.2695 279.139 92.8064 279.139C91.6252 279.139 90.86 280.038 90.86 281.38C90.86 282.736 91.6386 283.649 92.8869 283.649ZM99.435 276.172C99.435 276.628 99.0591 276.964 98.6027 276.964C98.1464 276.964 97.7839 276.628 97.7839 276.172C97.7839 275.716 98.1464 275.367 98.6027 275.367C99.0591 275.367 99.435 275.716 99.435 276.172ZM97.9719 284.562V278.226L99.1665 278.186V284.562H97.9719ZM103.857 278.145C105.481 278.145 106.515 279.098 106.515 280.306C106.515 280.575 106.475 280.736 106.475 280.736L105.374 280.816C105.387 280.749 105.401 280.629 105.401 280.481C105.401 279.702 104.837 279.139 103.884 279.139C102.689 279.139 101.884 280.038 101.884 281.407C101.884 282.749 102.649 283.649 103.991 283.649C105.186 283.649 105.696 283.098 105.938 282.803L106.636 283.555C106.045 284.266 105.092 284.642 103.951 284.642C101.978 284.642 100.676 283.34 100.676 281.434C100.676 279.501 101.991 278.145 103.857 278.145ZM113.771 283.555L113.838 284.548C113.838 284.548 113.529 284.629 113.193 284.629C112.536 284.629 112.052 284.32 112.052 283.582V283.568H112.026C111.851 283.89 111.301 284.642 109.824 284.642C108.428 284.642 107.676 283.917 107.676 282.884C107.676 281.501 108.992 280.951 111.784 280.951H111.972V280.548C111.972 279.689 111.448 279.139 110.401 279.139C109.502 279.139 108.952 279.501 108.952 280.159C108.952 280.306 108.978 280.387 109.019 280.481L107.905 280.669C107.905 280.669 107.824 280.427 107.824 280.118C107.824 278.964 108.817 278.145 110.428 278.145C112.146 278.145 113.153 279.071 113.153 280.535V283.098C113.153 283.447 113.247 283.582 113.542 283.582C113.623 283.582 113.717 283.568 113.771 283.555ZM110.066 283.649C111.301 283.649 111.972 282.964 111.972 282.374V281.77H111.784C109.623 281.77 108.885 282.159 108.885 282.857C108.885 283.353 109.26 283.649 110.066 283.649ZM119.013 283.273L119.388 284.226C119.388 284.226 118.758 284.642 117.724 284.642C116.086 284.642 115.429 283.77 115.429 282.145V279.179H114.422V278.226H115.429V276.347L116.623 276.279V278.226H119.08V279.179H116.623V282.105C116.623 283.125 116.986 283.635 117.845 283.635C118.583 283.635 119.013 283.273 119.013 283.273ZM121.916 276.172C121.916 276.628 121.54 276.964 121.084 276.964C120.627 276.964 120.265 276.628 120.265 276.172C120.265 275.716 120.627 275.367 121.084 275.367C121.54 275.367 121.916 275.716 121.916 276.172ZM120.453 284.562V278.226L121.648 278.186V284.562H120.453ZM126.419 278.145C128.378 278.145 129.681 279.501 129.681 281.421C129.681 283.34 128.378 284.642 126.419 284.642C124.459 284.642 123.157 283.34 123.157 281.421C123.157 279.501 124.459 278.145 126.419 278.145ZM126.419 283.649C127.654 283.649 128.472 282.736 128.472 281.421C128.472 280.105 127.654 279.139 126.419 279.139C125.184 279.139 124.365 280.105 124.365 281.421C124.365 282.736 125.184 283.649 126.419 283.649ZM134.464 278.145C135.981 278.145 136.934 279.165 136.934 280.682V284.562H135.739V280.682C135.739 279.756 135.216 279.139 134.263 279.139C132.947 279.139 132.357 280.333 132.357 281.246V284.562H131.175V278.226L132.008 278.186C132.115 278.669 132.169 279.38 132.169 279.662H132.209C132.544 278.87 133.256 278.145 134.464 278.145ZM144.746 275.998C143.914 275.998 143.458 276.561 143.458 277.42V278.226H145.619V279.179H143.458V284.562H142.276V279.179H141.337V278.226H142.276V277.447C142.276 275.984 143.216 275.004 144.639 275.004C145.35 275.004 145.927 275.259 146.062 275.34L145.646 276.279C145.498 276.199 145.229 275.998 144.746 275.998ZM149.5 278.145C149.782 278.145 150.077 278.186 150.319 278.253L150.024 279.447C149.889 279.367 149.702 279.3 149.433 279.3C148.722 279.3 147.916 279.931 147.916 281.246V284.562H146.735V278.226L147.567 278.186C147.675 278.669 147.728 279.38 147.728 279.662H147.782C148.024 278.83 148.561 278.145 149.5 278.145ZM156.75 281.716H151.998C152.119 282.884 152.911 283.649 154.173 283.649C155.139 283.649 155.69 283.192 155.971 282.817L156.696 283.474C156.106 284.253 155.166 284.642 154.079 284.642C152.052 284.642 150.777 283.34 150.777 281.407C150.777 279.514 151.998 278.145 153.918 278.145C155.784 278.145 156.804 279.447 156.804 281.112C156.804 281.488 156.75 281.716 156.75 281.716ZM153.918 279.139C152.898 279.139 152.2 279.85 152.025 280.87H155.596C155.582 279.823 154.924 279.139 153.918 279.139ZM163.505 278.226H164.337V287.3H163.156V283.447C162.74 284.145 162.002 284.642 160.928 284.642C159.143 284.642 157.908 283.34 157.908 281.38C157.908 279.434 159.143 278.145 160.995 278.145C162.203 278.145 162.995 278.803 163.331 279.662H163.344C163.331 279.407 163.411 278.655 163.505 278.226ZM161.143 283.649C162.485 283.649 163.156 282.454 163.156 281.514V281.259C163.156 280.306 162.525 279.139 161.062 279.139C159.881 279.139 159.116 280.038 159.116 281.38C159.116 282.736 159.894 283.649 161.143 283.649ZM170.577 278.226H171.758V284.562L170.899 284.602C170.792 284.119 170.738 283.407 170.738 283.259H170.724C170.375 284.025 169.704 284.642 168.617 284.642C167.1 284.642 166.147 283.622 166.147 282.105V278.226H167.342V282.105C167.342 283.031 167.865 283.649 168.818 283.649C169.986 283.649 170.577 282.454 170.577 281.541V278.226ZM179.231 281.716H174.479C174.6 282.884 175.392 283.649 176.654 283.649C177.62 283.649 178.171 283.192 178.453 282.817L179.177 283.474C178.587 284.253 177.647 284.642 176.56 284.642C174.533 284.642 173.258 283.34 173.258 281.407C173.258 279.514 174.479 278.145 176.399 278.145C178.265 278.145 179.285 279.447 179.285 281.112C179.285 281.488 179.231 281.716 179.231 281.716ZM176.399 279.139C175.379 279.139 174.681 279.85 174.506 280.87H178.077C178.063 279.823 177.406 279.139 176.399 279.139ZM184.053 278.145C185.57 278.145 186.523 279.165 186.523 280.682V284.562H185.329V280.682C185.329 279.756 184.805 279.139 183.852 279.139C182.537 279.139 181.946 280.333 181.946 281.246V284.562H180.765V278.226L181.597 278.186C181.704 278.669 181.758 279.38 181.758 279.662H181.798C182.134 278.87 182.845 278.145 184.053 278.145ZM192.223 283.273L192.599 284.226C192.599 284.226 191.968 284.642 190.935 284.642C189.297 284.642 188.639 283.77 188.639 282.145V279.179H187.633V278.226H188.639V276.347L189.834 276.279V278.226H192.291V279.179H189.834V282.105C189.834 283.125 190.197 283.635 191.056 283.635C191.794 283.635 192.223 283.273 192.223 283.273ZM193.664 284.562V275.085H194.845V284.562H193.664ZM199.549 285.689C199.187 286.629 198.596 287.367 197.428 287.367C196.824 287.367 196.449 287.166 196.449 287.166L196.663 286.186C196.663 286.186 196.959 286.347 197.348 286.347C198.006 286.347 198.288 285.917 198.502 285.353L198.744 284.723L196.059 278.226H197.388L199.133 282.655C199.267 282.978 199.294 283.085 199.348 283.353H199.361C199.415 283.058 199.469 282.937 199.576 282.655L201.348 278.226H202.556L199.549 285.689Z" fill="#012725"/>
</svg>
