<svg width="377" height="293" viewBox="0 0 377 293" fill="none" xmlns="http://www.w3.org/2000/svg">
<rect y="40.1481" width="377" height="65.5844" rx="4.8961" fill="#C4D3AA"/>
<path fill-rule="evenodd" clip-rule="evenodd" d="M21.2995 61.9282C22.7126 59.4788 26.2478 59.4788 27.6609 61.9282L36.6628 77.5315C38.0752 79.9795 36.3084 83.0386 33.4821 83.0386H15.4783C12.6521 83.0386 10.8853 79.9795 12.2976 77.5315L21.2995 61.9282ZM24.4805 68.3502C24.9875 68.3502 25.3985 68.7612 25.3985 69.2682V73.8583C25.3985 74.3653 24.9875 74.7763 24.4805 74.7763C23.9735 74.7763 23.5625 74.3653 23.5625 73.8583V69.2682C23.5625 68.7612 23.9735 68.3502 24.4805 68.3502ZM24.4805 78.4484C24.9875 78.4484 25.3985 78.0374 25.3985 77.5304C25.3985 77.0234 24.9875 76.6123 24.4805 76.6123C23.9735 76.6123 23.5625 77.0234 23.5625 77.5304C23.5625 78.0374 23.9735 78.4484 24.4805 78.4484Z" fill="#003310"/>
<path d="M51.0846 66.5831H56.8835V67.9403H49.4806V56.3072H51.0846V66.5831ZM65.8654 66.6184L65.9535 67.9227C65.9535 67.9227 65.5481 68.0284 65.1074 68.0284C64.2438 68.0284 63.6092 67.623 63.6092 66.6536V66.636H63.574C63.3448 67.059 62.6222 68.0461 60.6833 68.0461C58.8502 68.0461 57.8632 67.0943 57.8632 65.7371C57.8632 63.9216 59.5905 63.1989 63.2567 63.1989H63.5035V62.6701C63.5035 61.5421 62.8161 60.8194 61.4412 60.8194C60.2603 60.8194 59.5376 61.2953 59.5376 62.159C59.5376 62.3529 59.5729 62.4586 59.6258 62.582L58.1628 62.8288C58.1628 62.8288 58.057 62.5115 58.057 62.1061C58.057 60.5903 59.3614 59.5151 61.4765 59.5151C63.7326 59.5151 65.0546 60.7313 65.0546 62.6525V66.0191C65.0546 66.4774 65.1779 66.6536 65.5657 66.6536C65.6715 66.6536 65.7948 66.636 65.8654 66.6184ZM61.0006 66.7417C62.6222 66.7417 63.5035 65.8428 63.5035 65.0673V64.2741H63.2567C60.4189 64.2741 59.4495 64.7853 59.4495 65.7018C59.4495 66.354 59.943 66.7417 61.0006 66.7417ZM71.4207 59.5151C73.5534 59.5151 74.9106 60.7665 74.9106 62.3529C74.9106 62.7054 74.8578 62.9169 74.8578 62.9169L73.4124 63.0227C73.4301 62.9345 73.4477 62.7759 73.4477 62.582C73.4477 61.5597 72.7074 60.8194 71.456 60.8194C69.8872 60.8194 68.8297 62.0004 68.8297 63.7982C68.8297 65.5608 69.8344 66.7417 71.597 66.7417C73.1657 66.7417 73.8355 66.0191 74.1527 65.6313L75.0693 66.6184C74.2937 67.5525 73.0423 68.0461 71.5441 68.0461C68.9531 68.0461 67.2433 66.3363 67.2433 63.8335C67.2433 61.2953 68.9707 59.5151 71.4207 59.5151ZM82.6402 67.9403L79.3618 64.1155H78.4628V67.9403H76.9117V55.4964H78.4628V62.864H79.6085L82.4639 59.6208H84.2441L80.719 63.5162L84.5967 67.9403H82.6402ZM93.3007 59.5151C95.8741 59.5151 97.5838 61.2953 97.5838 63.8158C97.5838 66.3363 95.8741 68.0461 93.3007 68.0461C90.7273 68.0461 89.0176 66.3363 89.0176 63.8158C89.0176 61.2953 90.7273 59.5151 93.3007 59.5151ZM93.3007 66.7417C94.9223 66.7417 95.9975 65.5432 95.9975 63.8158C95.9975 62.0885 94.9223 60.8194 93.3007 60.8194C91.6791 60.8194 90.604 62.0885 90.604 63.8158C90.604 65.5432 91.6791 66.7417 93.3007 66.7417ZM103.183 56.6949C102.091 56.6949 101.491 57.4352 101.491 58.5633V59.6208H104.329V60.8723H101.491V67.9403H99.9402V60.8723H98.7064V59.6208H99.9402V58.5985C99.9402 56.6773 101.174 55.3906 103.042 55.3906C103.977 55.3906 104.734 55.7255 104.911 55.8313L104.364 57.0651C104.17 56.9593 103.818 56.6949 103.183 56.6949ZM113.13 59.5151C115.703 59.5151 117.413 61.2953 117.413 63.8158C117.413 66.3363 115.703 68.0461 113.13 68.0461C110.557 68.0461 108.847 66.3363 108.847 63.8158C108.847 61.2953 110.557 59.5151 113.13 59.5151ZM113.13 66.7417C114.752 66.7417 115.827 65.5432 115.827 63.8158C115.827 62.0885 114.752 60.8194 113.13 60.8194C111.508 60.8194 110.433 62.0885 110.433 63.8158C110.433 65.5432 111.508 66.7417 113.13 66.7417ZM125.093 59.6208H126.68L123.278 67.9403H121.586L118.149 59.6208H119.894L122.185 65.4374C122.361 65.8604 122.397 66.0015 122.467 66.354H122.502C122.573 65.9662 122.626 65.8076 122.767 65.4374L125.093 59.6208ZM135.298 64.2036H129.058C129.217 65.7371 130.257 66.7417 131.914 66.7417C133.183 66.7417 133.905 66.1425 134.276 65.6489L135.227 66.5126C134.452 67.5349 133.218 68.0461 131.79 68.0461C129.129 68.0461 127.454 66.3363 127.454 63.7982C127.454 61.3129 129.058 59.5151 131.579 59.5151C134.029 59.5151 135.368 61.2248 135.368 63.4104C135.368 63.904 135.298 64.2036 135.298 64.2036ZM131.579 60.8194C130.239 60.8194 129.323 61.7536 129.094 63.0932H133.782C133.764 61.7183 132.901 60.8194 131.579 60.8194ZM140.943 59.5151C141.313 59.5151 141.701 59.568 142.018 59.6561L141.63 61.2248C141.454 61.1191 141.207 61.0309 140.855 61.0309C139.92 61.0309 138.863 61.8593 138.863 63.5867V67.9403H137.312V59.6208L138.405 59.568C138.546 60.2025 138.616 61.1367 138.616 61.5068H138.687C139.004 60.414 139.709 59.5151 140.943 59.5151ZM149.381 59.6208H150.967L147.565 67.9403H145.873L142.436 59.6208H144.181L146.472 65.4374C146.649 65.8604 146.684 66.0015 146.754 66.354H146.79C146.86 65.9662 146.913 65.8076 147.054 65.4374L149.381 59.6208ZM154.45 56.9241C154.45 57.5234 153.956 57.964 153.357 57.964C152.757 57.964 152.282 57.5234 152.282 56.9241C152.282 56.3248 152.757 55.8665 153.357 55.8665C153.956 55.8665 154.45 56.3248 154.45 56.9241ZM152.528 67.9403V59.6208L154.097 59.568V67.9403H152.528ZM163.94 64.2036H157.701C157.859 65.7371 158.899 66.7417 160.556 66.7417C161.825 66.7417 162.548 66.1425 162.918 65.6489L163.87 66.5126C163.094 67.5349 161.86 68.0461 160.433 68.0461C157.771 68.0461 156.097 66.3363 156.097 63.7982C156.097 61.3129 157.701 59.5151 160.221 59.5151C162.671 59.5151 164.011 61.2248 164.011 63.4104C164.011 63.904 163.94 64.2036 163.94 64.2036ZM160.221 60.8194C158.881 60.8194 157.965 61.7536 157.736 63.0932H162.424C162.407 61.7183 161.543 60.8194 160.221 60.8194ZM176.058 59.6208H177.644L175.088 67.9403H173.238L171.493 62.1766C171.44 61.9827 171.387 61.736 171.369 61.595H171.334C171.316 61.736 171.263 61.9827 171.211 62.1766L169.395 67.9403H167.58L164.865 59.6208H166.61L168.267 65.4374C168.39 65.8957 168.514 66.213 168.549 66.354H168.584C168.62 66.213 168.743 65.8252 168.849 65.4374L170.558 59.6208H172.162L173.872 65.3845C173.978 65.7723 174.066 66.213 174.101 66.354H174.136C174.172 66.213 174.26 65.8428 174.401 65.3845L176.058 59.6208ZM190.779 66.6184L190.867 67.9227C190.867 67.9227 190.462 68.0284 190.021 68.0284C189.158 68.0284 188.523 67.623 188.523 66.6536V66.636H188.488C188.259 67.059 187.536 68.0461 185.597 68.0461C183.764 68.0461 182.777 67.0943 182.777 65.7371C182.777 63.9216 184.504 63.1989 188.17 63.1989H188.417V62.6701C188.417 61.5421 187.73 60.8194 186.355 60.8194C185.174 60.8194 184.451 61.2953 184.451 62.159C184.451 62.3529 184.487 62.4586 184.54 62.582L183.077 62.8288C183.077 62.8288 182.971 62.5115 182.971 62.1061C182.971 60.5903 184.275 59.5151 186.39 59.5151C188.646 59.5151 189.968 60.7313 189.968 62.6525V66.0191C189.968 66.4774 190.092 66.6536 190.479 66.6536C190.585 66.6536 190.709 66.636 190.779 66.6184ZM185.914 66.7417C187.536 66.7417 188.417 65.8428 188.417 65.0673V64.2741H188.17C185.333 64.2741 184.363 64.7853 184.363 65.7018C184.363 66.354 184.857 66.7417 185.914 66.7417ZM196.987 59.5151C198.978 59.5151 200.23 60.8547 200.23 62.8464V67.9403H198.661V62.8464C198.661 61.6302 197.974 60.8194 196.722 60.8194C194.995 60.8194 194.219 62.3881 194.219 63.5867V67.9403H192.668V59.6208L193.761 59.568C193.902 60.2025 193.973 61.1367 193.973 61.5068H194.025C194.466 60.4669 195.4 59.5151 196.987 59.5151ZM209.016 55.4964H210.567V67.9403L209.421 67.9932C209.333 67.4115 209.245 66.3892 209.262 66.0543H209.209C208.734 67.1648 207.694 68.0461 206.09 68.0461C203.745 68.0461 202.124 66.3363 202.124 63.763C202.124 61.2072 203.745 59.5151 206.178 59.5151C207.535 59.5151 208.469 60.1144 209.016 60.9252V55.4964ZM206.372 66.7417C208.134 66.7417 209.016 65.173 209.016 63.9392V63.6043C209.016 62.3529 208.187 60.8194 206.266 60.8194C204.715 60.8194 203.71 62.0004 203.71 63.763C203.71 65.5432 204.732 66.7417 206.372 66.7417ZM220.691 59.5151C222.823 59.5151 224.181 60.7665 224.181 62.3529C224.181 62.7054 224.128 62.9169 224.128 62.9169L222.682 63.0227C222.7 62.9345 222.718 62.7759 222.718 62.582C222.718 61.5597 221.977 60.8194 220.726 60.8194C219.157 60.8194 218.1 62.0004 218.1 63.7982C218.1 65.5608 219.104 66.7417 220.867 66.7417C222.436 66.7417 223.105 66.0191 223.423 65.6313L224.339 66.6184C223.564 67.5525 222.312 68.0461 220.814 68.0461C218.223 68.0461 216.513 66.3363 216.513 63.8335C216.513 61.2953 218.241 59.5151 220.691 59.5151ZM229.954 59.5151C232.527 59.5151 234.237 61.2953 234.237 63.8158C234.237 66.3363 232.527 68.0461 229.954 68.0461C227.38 68.0461 225.671 66.3363 225.671 63.8158C225.671 61.2953 227.38 59.5151 229.954 59.5151ZM229.954 66.7417C231.575 66.7417 232.65 65.5432 232.65 63.8158C232.65 62.0885 231.575 60.8194 229.954 60.8194C228.332 60.8194 227.257 62.0885 227.257 63.8158C227.257 65.5432 228.332 66.7417 229.954 66.7417ZM240.518 59.5151C242.51 59.5151 243.761 60.8547 243.761 62.8464V67.9403H242.192V62.8464C242.192 61.6302 241.505 60.8194 240.254 60.8194C238.526 60.8194 237.751 62.3881 237.751 63.5867V67.9403H236.2V59.6208L237.292 59.568C237.433 60.2025 237.504 61.1367 237.504 61.5068H237.557C237.997 60.4669 238.932 59.5151 240.518 59.5151ZM251.246 66.2482L251.74 67.4997C251.74 67.4997 250.911 68.0461 249.554 68.0461C247.404 68.0461 246.54 66.9004 246.54 64.7676V60.8723H245.218V59.6208H246.54V57.1532L248.109 57.0651V59.6208H251.334V60.8723H248.109V64.7148C248.109 66.0543 248.585 66.7241 249.713 66.7241C250.682 66.7241 251.246 66.2482 251.246 66.2482ZM256.751 59.5151C257.121 59.5151 257.509 59.568 257.826 59.6561L257.438 61.2248C257.262 61.1191 257.015 61.0309 256.663 61.0309C255.728 61.0309 254.671 61.8593 254.671 63.5867V67.9403H253.12V59.6208L254.213 59.568C254.354 60.2025 254.424 61.1367 254.424 61.5068H254.495C254.812 60.414 255.517 59.5151 256.751 59.5151ZM262.693 59.5151C265.266 59.5151 266.976 61.2953 266.976 63.8158C266.976 66.3363 265.266 68.0461 262.693 68.0461C260.119 68.0461 258.409 66.3363 258.409 63.8158C258.409 61.2953 260.119 59.5151 262.693 59.5151ZM262.693 66.7417C264.314 66.7417 265.389 65.5432 265.389 63.8158C265.389 62.0885 264.314 60.8194 262.693 60.8194C261.071 60.8194 259.996 62.0885 259.996 63.8158C259.996 65.5432 261.071 66.7417 262.693 66.7417ZM268.956 67.9403V55.4964H270.507V67.9403H268.956ZM280.66 59.5151C282.793 59.5151 284.15 60.7665 284.15 62.3529C284.15 62.7054 284.097 62.9169 284.097 62.9169L282.652 63.0227C282.67 62.9345 282.687 62.7759 282.687 62.582C282.687 61.5597 281.947 60.8194 280.696 60.8194C279.127 60.8194 278.069 62.0004 278.069 63.7982C278.069 65.5608 279.074 66.7417 280.837 66.7417C282.405 66.7417 283.075 66.0191 283.392 65.6313L284.309 66.6184C283.533 67.5525 282.282 68.0461 280.784 68.0461C278.193 68.0461 276.483 66.3363 276.483 63.8335C276.483 61.2953 278.21 59.5151 280.66 59.5151ZM289.782 59.5151C290.152 59.5151 290.54 59.568 290.857 59.6561L290.47 61.2248C290.293 61.1191 290.047 61.0309 289.694 61.0309C288.76 61.0309 287.702 61.8593 287.702 63.5867V67.9403H286.151V59.6208L287.244 59.568C287.385 60.2025 287.456 61.1367 287.456 61.5068H287.526C287.843 60.414 288.548 59.5151 289.782 59.5151ZM299.302 64.2036H293.063C293.221 65.7371 294.261 66.7417 295.918 66.7417C297.187 66.7417 297.91 66.1425 298.28 65.6489L299.232 66.5126C298.456 67.5349 297.222 68.0461 295.795 68.0461C293.133 68.0461 291.459 66.3363 291.459 63.7982C291.459 61.3129 293.063 59.5151 295.583 59.5151C298.033 59.5151 299.373 61.2248 299.373 63.4104C299.373 63.904 299.302 64.2036 299.302 64.2036ZM295.583 60.8194C294.243 60.8194 293.327 61.7536 293.098 63.0932H297.786C297.769 61.7183 296.905 60.8194 295.583 60.8194ZM308.842 66.6184L308.93 67.9227C308.93 67.9227 308.525 68.0284 308.084 68.0284C307.221 68.0284 306.586 67.623 306.586 66.6536V66.636H306.551C306.322 67.059 305.599 68.0461 303.66 68.0461C301.827 68.0461 300.84 67.0943 300.84 65.7371C300.84 63.9216 302.567 63.1989 306.234 63.1989H306.48V62.6701C306.48 61.5421 305.793 60.8194 304.418 60.8194C303.237 60.8194 302.514 61.2953 302.514 62.159C302.514 62.3529 302.55 62.4586 302.603 62.582L301.14 62.8288C301.14 62.8288 301.034 62.5115 301.034 62.1061C301.034 60.5903 302.338 59.5151 304.453 59.5151C306.709 59.5151 308.031 60.7313 308.031 62.6525V66.0191C308.031 66.4774 308.155 66.6536 308.543 66.6536C308.648 66.6536 308.772 66.636 308.842 66.6184ZM303.977 66.7417C305.599 66.7417 306.48 65.8428 306.48 65.0673V64.2741H306.234C303.396 64.2741 302.426 64.7853 302.426 65.7018C302.426 66.354 302.92 66.7417 303.977 66.7417ZM315.726 66.2482L316.219 67.4997C316.219 67.4997 315.391 68.0461 314.034 68.0461C311.883 68.0461 311.02 66.9004 311.02 64.7676V60.8723H309.698V59.6208H311.02V57.1532L312.588 57.0651V59.6208H315.814V60.8723H312.588V64.7148C312.588 66.0543 313.064 66.7241 314.192 66.7241C315.162 66.7241 315.726 66.2482 315.726 66.2482ZM324.829 64.2036H318.589C318.748 65.7371 319.788 66.7417 321.445 66.7417C322.714 66.7417 323.436 66.1425 323.806 65.6489L324.758 66.5126C323.983 67.5349 322.749 68.0461 321.321 68.0461C318.66 68.0461 316.985 66.3363 316.985 63.7982C316.985 61.3129 318.589 59.5151 321.11 59.5151C323.56 59.5151 324.899 61.2248 324.899 63.4104C324.899 63.904 324.829 64.2036 324.829 64.2036ZM321.11 60.8194C319.77 60.8194 318.854 61.7536 318.624 63.0932H323.313C323.295 61.7183 322.432 60.8194 321.11 60.8194ZM331.531 62.5996C331.566 62.4763 331.584 62.3176 331.584 62.1942C331.584 61.3306 330.826 60.8194 329.733 60.8194C328.693 60.8194 328.094 61.2953 328.094 61.9827C328.094 63.9392 333.1 62.5291 333.153 65.6842C333.17 67.1824 331.743 68.0461 329.716 68.0461C327.671 68.0461 326.596 67.1824 326.12 66.7946L327.072 65.7371C327.424 66.072 328.464 66.7417 329.733 66.7417C330.967 66.7417 331.566 66.3011 331.566 65.6666C331.566 63.9568 326.508 65.0496 326.508 61.9651C326.508 60.5903 327.812 59.5151 329.768 59.5151C331.725 59.5151 333.029 60.5374 333.029 61.9122C333.029 62.2471 332.959 62.4939 332.959 62.4939L331.531 62.5996ZM53.9047 85.5996C53.94 85.4763 53.9576 85.3176 53.9576 85.1942C53.9576 84.3306 53.1997 83.8194 52.1069 83.8194C51.067 83.8194 50.4677 84.2953 50.4677 84.9827C50.4677 86.9392 55.4735 85.5291 55.5263 88.6842C55.544 90.1824 54.1163 91.0461 52.0893 91.0461C50.0447 91.0461 48.9695 90.1824 48.4936 89.7946L49.4454 88.7371C49.7979 89.072 50.8378 89.7417 52.1069 89.7417C53.3407 89.7417 53.94 89.3011 53.94 88.6666C53.94 86.9568 48.8813 88.0496 48.8813 84.9651C48.8813 83.5903 50.1857 82.5151 52.1422 82.5151C54.0986 82.5151 55.403 83.5374 55.403 84.9122C55.403 85.2471 55.3325 85.4939 55.3325 85.4939L53.9047 85.5996ZM62.6449 89.2482L63.1384 90.4997C63.1384 90.4997 62.31 91.0461 60.9528 91.0461C58.8024 91.0461 57.9388 89.9004 57.9388 87.7676V83.8723H56.6168V82.6208H57.9388V80.1532L59.5075 80.0651V82.6208H62.733V83.8723H59.5075V87.7148C59.5075 89.0543 59.9834 89.7241 61.1114 89.7241C62.0809 89.7241 62.6449 89.2482 62.6449 89.2482ZM68.1494 82.5151C68.5196 82.5151 68.9073 82.568 69.2246 82.6561L68.8368 84.2248C68.6606 84.1191 68.4138 84.0309 68.0613 84.0309C67.1271 84.0309 66.0696 84.8593 66.0696 86.5867V90.9403H64.5185V82.6208L65.6113 82.568C65.7523 83.2025 65.8228 84.1367 65.8228 84.5068H65.8933C66.2106 83.414 66.9156 82.5151 68.1494 82.5151ZM77.6692 87.2036H71.4297C71.5883 88.7371 72.6282 89.7417 74.2851 89.7417C75.5541 89.7417 76.2768 89.1425 76.6469 88.6489L77.5987 89.5126C76.8232 90.5349 75.5894 91.0461 74.1617 91.0461C71.5002 91.0461 69.8257 89.3363 69.8257 86.7982C69.8257 84.3129 71.4297 82.5151 73.9502 82.5151C76.4002 82.5151 77.7397 84.2248 77.7397 86.4104C77.7397 86.904 77.6692 87.2036 77.6692 87.2036ZM73.9502 83.8194C72.6106 83.8194 71.694 84.7536 71.4649 86.0932H76.1534C76.1358 84.7183 75.2721 83.8194 73.9502 83.8194ZM84.3715 85.5996C84.4068 85.4763 84.4244 85.3176 84.4244 85.1942C84.4244 84.3306 83.6665 83.8194 82.5737 83.8194C81.5337 83.8194 80.9345 84.2953 80.9345 84.9827C80.9345 86.9392 85.9402 85.5291 85.9931 88.6842C86.0107 90.1824 84.583 91.0461 82.556 91.0461C80.5114 91.0461 79.4362 90.1824 78.9603 89.7946L79.9121 88.7371C80.2647 89.072 81.3046 89.7417 82.5737 89.7417C83.8075 89.7417 84.4068 89.3011 84.4068 88.6666C84.4068 86.9568 79.3481 88.0496 79.3481 84.9651C79.3481 83.5903 80.6524 82.5151 82.6089 82.5151C84.5654 82.5151 85.8697 83.5374 85.8697 84.9122C85.8697 85.2471 85.7992 85.4939 85.7992 85.4939L84.3715 85.5996ZM92.6681 85.5996C92.7034 85.4763 92.721 85.3176 92.721 85.1942C92.721 84.3306 91.9631 83.8194 90.8703 83.8194C89.8303 83.8194 89.2311 84.2953 89.2311 84.9827C89.2311 86.9392 94.2368 85.5291 94.2897 88.6842C94.3073 90.1824 92.8796 91.0461 90.8526 91.0461C88.808 91.0461 87.7329 90.1824 87.2569 89.7946L88.2088 88.7371C88.5613 89.072 89.6012 89.7417 90.8703 89.7417C92.1041 89.7417 92.7034 89.3011 92.7034 88.6666C92.7034 86.9568 87.6447 88.0496 87.6447 84.9651C87.6447 83.5903 88.949 82.5151 90.9055 82.5151C92.862 82.5151 94.1663 83.5374 94.1663 84.9122C94.1663 85.2471 94.0958 85.4939 94.0958 85.4939L92.6681 85.5996ZM107.796 89.6184L107.884 90.9227C107.884 90.9227 107.479 91.0284 107.038 91.0284C106.174 91.0284 105.54 90.623 105.54 89.6536V89.636H105.505C105.275 90.059 104.553 91.0461 102.614 91.0461C100.781 91.0461 99.7937 90.0943 99.7937 88.7371C99.7937 86.9216 101.521 86.1989 105.187 86.1989H105.434V85.6701C105.434 84.5421 104.747 83.8194 103.372 83.8194C102.191 83.8194 101.468 84.2953 101.468 85.159C101.468 85.3529 101.503 85.4586 101.556 85.582L100.093 85.8288C100.093 85.8288 99.9876 85.5115 99.9876 85.1061C99.9876 83.5903 101.292 82.5151 103.407 82.5151C105.663 82.5151 106.985 83.7313 106.985 85.6525V89.0191C106.985 89.4774 107.108 89.6536 107.496 89.6536C107.602 89.6536 107.725 89.636 107.796 89.6184ZM102.931 89.7417C104.553 89.7417 105.434 88.8428 105.434 88.0673V87.2741H105.187C102.349 87.2741 101.38 87.7853 101.38 88.7018C101.38 89.354 101.874 89.7417 102.931 89.7417ZM114.003 82.5151C115.995 82.5151 117.247 83.8547 117.247 85.8464V90.9403H115.678V85.8464C115.678 84.6302 114.99 83.8194 113.739 83.8194C112.012 83.8194 111.236 85.3881 111.236 86.5867V90.9403H109.685V82.6208L110.778 82.568C110.919 83.2025 110.989 84.1367 110.989 84.5068H111.042C111.483 83.4669 112.417 82.5151 114.003 82.5151ZM126.032 78.4964H127.583V90.9403L126.438 90.9932C126.35 90.4115 126.261 89.3892 126.279 89.0543H126.226C125.75 90.1648 124.71 91.0461 123.106 91.0461C120.762 91.0461 119.141 89.3363 119.141 86.763C119.141 84.2072 120.762 82.5151 123.195 82.5151C124.552 82.5151 125.486 83.1144 126.032 83.9252V78.4964ZM123.388 89.7417C125.151 89.7417 126.032 88.173 126.032 86.9392V86.6043C126.032 85.3529 125.204 83.8194 123.283 83.8194C121.732 83.8194 120.727 85.0004 120.727 86.763C120.727 88.5432 121.749 89.7417 123.388 89.7417ZM139.77 82.6208H141.321V90.9403L140.193 90.9932C140.052 90.3587 139.981 89.4245 139.981 89.2306H139.964C139.505 90.2353 138.624 91.0461 137.196 91.0461C135.205 91.0461 133.953 89.7065 133.953 87.7148V82.6208H135.522V87.7148C135.522 88.9309 136.209 89.7417 137.461 89.7417C138.994 89.7417 139.77 88.173 139.77 86.9745V82.6208ZM148.102 82.5151C150.094 82.5151 151.345 83.8547 151.345 85.8464V90.9403H149.777V85.8464C149.777 84.6302 149.089 83.8194 147.838 83.8194C146.11 83.8194 145.335 85.3881 145.335 86.5867V90.9403H143.784V82.6208L144.877 82.568C145.018 83.2025 145.088 84.1367 145.088 84.5068H145.141C145.582 83.4669 146.516 82.5151 148.102 82.5151ZM157.399 82.5151C159.532 82.5151 160.889 83.7665 160.889 85.3529C160.889 85.7054 160.836 85.9169 160.836 85.9169L159.391 86.0227C159.408 85.9345 159.426 85.7759 159.426 85.582C159.426 84.5597 158.686 83.8194 157.434 83.8194C155.866 83.8194 154.808 85.0004 154.808 86.7982C154.808 88.5608 155.813 89.7417 157.575 89.7417C159.144 89.7417 159.814 89.0191 160.131 88.6313L161.048 89.6184C160.272 90.5525 159.021 91.0461 157.522 91.0461C154.931 91.0461 153.222 89.3363 153.222 86.8335C153.222 84.2953 154.949 82.5151 157.399 82.5151ZM170.24 87.2036H164C164.159 88.7371 165.199 89.7417 166.856 89.7417C168.125 89.7417 168.848 89.1425 169.218 88.6489L170.17 89.5126C169.394 90.5349 168.16 91.0461 166.732 91.0461C164.071 91.0461 162.396 89.3363 162.396 86.7982C162.396 84.3129 164 82.5151 166.521 82.5151C168.971 82.5151 170.311 84.2248 170.311 86.4104C170.311 86.904 170.24 87.2036 170.24 87.2036ZM166.521 83.8194C165.181 83.8194 164.265 84.7536 164.036 86.0932H168.724C168.707 84.7183 167.843 83.8194 166.521 83.8194ZM175.885 82.5151C176.255 82.5151 176.643 82.568 176.96 82.6561L176.572 84.2248C176.396 84.1191 176.149 84.0309 175.797 84.0309C174.862 84.0309 173.805 84.8593 173.805 86.5867V90.9403H172.254V82.6208L173.347 82.568C173.488 83.2025 173.558 84.1367 173.558 84.5068H173.629C173.946 83.414 174.651 82.5151 175.885 82.5151ZM183.582 89.2482L184.076 90.4997C184.076 90.4997 183.248 91.0461 181.89 91.0461C179.74 91.0461 178.876 89.9004 178.876 87.7676V83.8723H177.554V82.6208H178.876V80.1532L180.445 80.0651V82.6208H183.671V83.8723H180.445V87.7148C180.445 89.0543 180.921 89.7241 182.049 89.7241C183.018 89.7241 183.582 89.2482 183.582 89.2482ZM192.982 89.6184L193.07 90.9227C193.07 90.9227 192.665 91.0284 192.224 91.0284C191.361 91.0284 190.726 90.623 190.726 89.6536V89.636H190.691C190.462 90.059 189.739 91.0461 187.8 91.0461C185.967 91.0461 184.98 90.0943 184.98 88.7371C184.98 86.9216 186.708 86.1989 190.374 86.1989H190.62V85.6701C190.62 84.5421 189.933 83.8194 188.558 83.8194C187.377 83.8194 186.655 84.2953 186.655 85.159C186.655 85.3529 186.69 85.4586 186.743 85.582L185.28 85.8288C185.28 85.8288 185.174 85.5115 185.174 85.1061C185.174 83.5903 186.478 82.5151 188.594 82.5151C190.85 82.5151 192.172 83.7313 192.172 85.6525V89.0191C192.172 89.4774 192.295 89.6536 192.683 89.6536C192.788 89.6536 192.912 89.636 192.982 89.6184ZM188.118 89.7417C189.739 89.7417 190.62 88.8428 190.62 88.0673V87.2741H190.374C187.536 87.2741 186.567 87.7853 186.567 88.7018C186.567 89.354 187.06 89.7417 188.118 89.7417ZM196.81 79.9241C196.81 80.5234 196.317 80.964 195.718 80.964C195.118 80.964 194.642 80.5234 194.642 79.9241C194.642 79.3248 195.118 78.8665 195.718 78.8665C196.317 78.8665 196.81 79.3248 196.81 79.9241ZM194.889 90.9403V82.6208L196.458 82.568V90.9403H194.889ZM203.269 82.5151C205.261 82.5151 206.513 83.8547 206.513 85.8464V90.9403H204.944V85.8464C204.944 84.6302 204.256 83.8194 203.005 83.8194C201.278 83.8194 200.502 85.3881 200.502 86.5867V90.9403H198.951V82.6208L200.044 82.568C200.185 83.2025 200.255 84.1367 200.255 84.5068H200.308C200.749 83.4669 201.683 82.5151 203.269 82.5151ZM213.998 89.2482L214.491 90.4997C214.491 90.4997 213.663 91.0461 212.306 91.0461C210.155 91.0461 209.291 89.9004 209.291 87.7676V83.8723H207.97V82.6208H209.291V80.1532L210.86 80.0651V82.6208H214.086V83.8723H210.86V87.7148C210.86 89.0543 211.336 89.7241 212.464 89.7241C213.434 89.7241 213.998 89.2482 213.998 89.2482ZM219.555 92.4209C219.079 93.6547 218.304 94.6241 216.77 94.6241C215.977 94.6241 215.483 94.3597 215.483 94.3597L215.765 93.0731C215.765 93.0731 216.153 93.2846 216.664 93.2846C217.528 93.2846 217.898 92.7205 218.18 91.9802L218.497 91.1518L214.972 82.6208H216.717L219.009 88.4374C219.185 88.8604 219.22 89.0015 219.291 89.354H219.308C219.379 88.9662 219.449 88.8076 219.59 88.4374L221.917 82.6208H223.503L219.555 92.4209Z" fill="#012725"/>
<rect y="118.975" width="377" height="48.961" rx="4.8961" fill="#C4D3AA"/>
<path fill-rule="evenodd" clip-rule="evenodd" d="M21.2995 132.444C22.7126 129.994 26.2478 129.994 27.6609 132.444L36.6628 148.047C38.0752 150.495 36.3084 153.554 33.4821 153.554H15.4783C12.6521 153.554 10.8853 150.495 12.2976 148.047L21.2995 132.444ZM24.4805 138.866C24.9875 138.866 25.3985 139.277 25.3985 139.784V144.374C25.3985 144.881 24.9875 145.292 24.4805 145.292C23.9735 145.292 23.5625 144.881 23.5625 144.374V139.784C23.5625 139.277 23.9735 138.866 24.4805 138.866ZM24.4805 148.964C24.9875 148.964 25.3985 148.553 25.3985 148.046C25.3985 147.539 24.9875 147.128 24.4805 147.128C23.9735 147.128 23.5625 147.539 23.5625 148.046C23.5625 148.553 23.9735 148.964 24.4805 148.964Z" fill="#003310"/>
<path d="M55.403 141.425C55.2972 140.808 54.6627 139.627 52.8472 139.627C51.49 139.627 50.6087 140.279 50.6087 141.39C50.6087 143.857 56.9717 142.606 56.9717 146.959C56.9717 148.828 55.3325 150.062 52.8296 150.062C50.7497 150.062 49.2515 149.286 48.5465 148.687L49.5511 147.435C50.027 147.858 51.067 148.652 52.8296 148.652C54.4335 148.652 55.3853 147.999 55.3853 146.959C55.3853 143.857 48.9871 145.373 48.9871 141.407C48.9871 139.504 50.5734 138.217 52.8472 138.217C56.0022 138.217 56.6897 140.226 56.9012 141.055L55.403 141.425ZM66.5367 148.634L66.6248 149.938C66.6248 149.938 66.2194 150.044 65.7787 150.044C64.9151 150.044 64.2805 149.639 64.2805 148.669V148.652H64.2453C64.0161 149.075 63.2935 150.062 61.3546 150.062C59.5215 150.062 58.5345 149.11 58.5345 147.753C58.5345 145.937 60.2618 145.214 63.928 145.214H64.1748V144.686C64.1748 143.558 63.4874 142.835 62.1125 142.835C60.9316 142.835 60.2089 143.311 60.2089 144.175C60.2089 144.368 60.2442 144.474 60.2971 144.598L58.8341 144.844C58.8341 144.844 58.7283 144.527 58.7283 144.122C58.7283 142.606 60.0327 141.531 62.1478 141.531C64.4039 141.531 65.7259 142.747 65.7259 144.668V148.035C65.7259 148.493 65.8492 148.669 66.237 148.669C66.3428 148.669 66.4661 148.652 66.5367 148.634ZM61.6719 148.757C63.2935 148.757 64.1748 147.858 64.1748 147.083V146.29H63.928C61.0902 146.29 60.1208 146.801 60.1208 147.717C60.1208 148.37 60.6143 148.757 61.6719 148.757ZM72.0797 138.71C70.9869 138.71 70.3877 139.451 70.3877 140.579V141.636H73.2254V142.888H70.3877V149.956H68.8366V142.888H67.6027V141.636H68.8366V140.614C68.8366 138.693 70.0704 137.406 71.9387 137.406C72.8729 137.406 73.6308 137.741 73.8071 137.847L73.2607 139.081C73.0668 138.975 72.7143 138.71 72.0797 138.71ZM81.7487 146.219H75.5091C75.6677 147.753 76.7077 148.757 78.3645 148.757C79.6336 148.757 80.3562 148.158 80.7264 147.664L81.6782 148.528C80.9026 149.55 79.6688 150.062 78.2411 150.062C75.5796 150.062 73.9051 148.352 73.9051 145.814C73.9051 143.329 75.5091 141.531 78.0296 141.531C80.4796 141.531 81.8192 143.24 81.8192 145.426C81.8192 145.92 81.7487 146.219 81.7487 146.219ZM78.0296 142.835C76.69 142.835 75.7735 143.769 75.5444 145.109H80.2329C80.2152 143.734 79.3516 142.835 78.0296 142.835ZM95.2821 148.634L95.3703 149.938C95.3703 149.938 94.9649 150.044 94.5242 150.044C93.6606 150.044 93.026 149.639 93.026 148.669V148.652H92.9908C92.7616 149.075 92.039 150.062 90.1001 150.062C88.267 150.062 87.2799 149.11 87.2799 147.753C87.2799 145.937 89.0073 145.214 92.6735 145.214H92.9203V144.686C92.9203 143.558 92.2328 142.835 90.858 142.835C89.6771 142.835 88.9544 143.311 88.9544 144.175C88.9544 144.368 88.9897 144.474 89.0425 144.598L87.5796 144.844C87.5796 144.844 87.4738 144.527 87.4738 144.122C87.4738 142.606 88.7782 141.531 90.8933 141.531C93.1494 141.531 94.4713 142.747 94.4713 144.668V148.035C94.4713 148.493 94.5947 148.669 94.9825 148.669C95.0883 148.669 95.2116 148.652 95.2821 148.634ZM90.4174 148.757C92.039 148.757 92.9203 147.858 92.9203 147.083V146.29H92.6735C89.8357 146.29 88.8663 146.801 88.8663 147.717C88.8663 148.37 89.3598 148.757 90.4174 148.757ZM101.49 141.531C103.481 141.531 104.733 142.87 104.733 144.862V149.956H103.164V144.862C103.164 143.646 102.477 142.835 101.225 142.835C99.4979 142.835 98.7224 144.404 98.7224 145.602V149.956H97.1713V141.636L98.2641 141.584C98.4051 142.218 98.4756 143.152 98.4756 143.522H98.5285C98.9691 142.482 99.9033 141.531 101.49 141.531ZM113.519 137.512H115.07V149.956L113.924 150.009C113.836 149.427 113.748 148.405 113.765 148.07H113.712C113.237 149.18 112.197 150.062 110.593 150.062C108.248 150.062 106.627 148.352 106.627 145.779C106.627 143.223 108.248 141.531 110.681 141.531C112.038 141.531 112.972 142.13 113.519 142.941V137.512ZM110.875 148.757C112.637 148.757 113.519 147.189 113.519 145.955V145.62C113.519 144.368 112.69 142.835 110.769 142.835C109.218 142.835 108.213 144.016 108.213 145.779C108.213 147.559 109.235 148.757 110.875 148.757ZM126.216 144.615C126.251 144.492 126.269 144.333 126.269 144.21C126.269 143.346 125.511 142.835 124.418 142.835C123.378 142.835 122.779 143.311 122.779 143.998C122.779 145.955 127.785 144.545 127.838 147.7C127.855 149.198 126.428 150.062 124.401 150.062C122.356 150.062 121.281 149.198 120.805 148.81L121.757 147.753C122.109 148.088 123.149 148.757 124.418 148.757C125.652 148.757 126.251 148.317 126.251 147.682C126.251 145.972 121.193 147.065 121.193 143.981C121.193 142.606 122.497 141.531 124.453 141.531C126.41 141.531 127.714 142.553 127.714 143.928C127.714 144.263 127.644 144.509 127.644 144.509L126.216 144.615ZM137.174 146.219H130.935C131.093 147.753 132.133 148.757 133.79 148.757C135.059 148.757 135.782 148.158 136.152 147.664L137.104 148.528C136.328 149.55 135.094 150.062 133.667 150.062C131.005 150.062 129.331 148.352 129.331 145.814C129.331 143.329 130.935 141.531 133.455 141.531C135.905 141.531 137.245 143.24 137.245 145.426C137.245 145.92 137.174 146.219 137.174 146.219ZM133.455 142.835C132.115 142.835 131.199 143.769 130.97 145.109H135.658C135.641 143.734 134.777 142.835 133.455 142.835ZM142.854 141.531C144.987 141.531 146.344 142.782 146.344 144.368C146.344 144.721 146.291 144.932 146.291 144.932L144.846 145.038C144.863 144.95 144.881 144.791 144.881 144.598C144.881 143.575 144.141 142.835 142.889 142.835C141.321 142.835 140.263 144.016 140.263 145.814C140.263 147.576 141.268 148.757 143.03 148.757C144.599 148.757 145.269 148.035 145.586 147.647L146.503 148.634C145.727 149.568 144.476 150.062 142.977 150.062C140.386 150.062 138.677 148.352 138.677 145.849C138.677 143.311 140.404 141.531 142.854 141.531ZM154.074 141.636H155.625V149.956L154.497 150.009C154.356 149.374 154.285 148.44 154.285 148.246H154.267C153.809 149.251 152.928 150.062 151.5 150.062C149.508 150.062 148.257 148.722 148.257 146.73V141.636H149.826V146.73C149.826 147.947 150.513 148.757 151.765 148.757C153.298 148.757 154.074 147.189 154.074 145.99V141.636ZM161.719 141.531C162.089 141.531 162.476 141.584 162.794 141.672L162.406 143.24C162.23 143.135 161.983 143.046 161.63 143.046C160.696 143.046 159.639 143.875 159.639 145.602V149.956H158.088V141.636L159.18 141.584C159.321 142.218 159.392 143.152 159.392 143.522H159.462C159.78 142.43 160.485 141.531 161.719 141.531ZM171.238 146.219H164.999C165.157 147.753 166.197 148.757 167.854 148.757C169.123 148.757 169.846 148.158 170.216 147.664L171.168 148.528C170.392 149.55 169.159 150.062 167.731 150.062C165.069 150.062 163.395 148.352 163.395 145.814C163.395 143.329 164.999 141.531 167.519 141.531C169.969 141.531 171.309 143.24 171.309 145.426C171.309 145.92 171.238 146.219 171.238 146.219ZM167.519 142.835C166.18 142.835 165.263 143.769 165.034 145.109H169.723C169.705 143.734 168.841 142.835 167.519 142.835ZM181.934 144.615C181.969 144.492 181.987 144.333 181.987 144.21C181.987 143.346 181.229 142.835 180.136 142.835C179.096 142.835 178.497 143.311 178.497 143.998C178.497 145.955 183.503 144.545 183.556 147.7C183.573 149.198 182.146 150.062 180.119 150.062C178.074 150.062 176.999 149.198 176.523 148.81L177.475 147.753C177.827 148.088 178.867 148.757 180.136 148.757C181.37 148.757 181.969 148.317 181.969 147.682C181.969 145.972 176.911 147.065 176.911 143.981C176.911 142.606 178.215 141.531 180.171 141.531C182.128 141.531 183.432 142.553 183.432 143.928C183.432 144.263 183.362 144.509 183.362 144.509L181.934 144.615ZM190.674 148.264L191.168 149.515C191.168 149.515 190.339 150.062 188.982 150.062C186.832 150.062 185.968 148.916 185.968 146.783V142.888H184.646V141.636H185.968V139.169L187.537 139.081V141.636H190.762V142.888H187.537V146.73C187.537 148.07 188.013 148.74 189.141 148.74C190.11 148.74 190.674 148.264 190.674 148.264ZM196.199 141.531C198.773 141.531 200.482 143.311 200.482 145.831C200.482 148.352 198.773 150.062 196.199 150.062C193.626 150.062 191.916 148.352 191.916 145.831C191.916 143.311 193.626 141.531 196.199 141.531ZM196.199 148.757C197.821 148.757 198.896 147.559 198.896 145.831C198.896 144.104 197.821 142.835 196.199 142.835C194.578 142.835 193.502 144.104 193.502 145.831C193.502 147.559 194.578 148.757 196.199 148.757ZM206.076 141.531C206.446 141.531 206.834 141.584 207.151 141.672L206.764 143.24C206.587 143.135 206.341 143.046 205.988 143.046C205.054 143.046 203.996 143.875 203.996 145.602V149.956H202.445V141.636L203.538 141.584C203.679 142.218 203.749 143.152 203.749 143.522H203.82C204.137 142.43 204.842 141.531 206.076 141.531ZM215.893 148.634L215.981 149.938C215.981 149.938 215.575 150.044 215.135 150.044C214.271 150.044 213.637 149.639 213.637 148.669V148.652H213.601C213.372 149.075 212.65 150.062 210.711 150.062C208.878 150.062 207.891 149.11 207.891 147.753C207.891 145.937 209.618 145.214 213.284 145.214H213.531V144.686C213.531 143.558 212.843 142.835 211.469 142.835C210.288 142.835 209.565 143.311 209.565 144.175C209.565 144.368 209.6 144.474 209.653 144.598L208.19 144.844C208.19 144.844 208.084 144.527 208.084 144.122C208.084 142.606 209.389 141.531 211.504 141.531C213.76 141.531 215.082 142.747 215.082 144.668V148.035C215.082 148.493 215.205 148.669 215.593 148.669C215.699 148.669 215.822 148.652 215.893 148.634ZM211.028 148.757C212.65 148.757 213.531 147.858 213.531 147.083V146.29H213.284C210.446 146.29 209.477 146.801 209.477 147.717C209.477 148.37 209.97 148.757 211.028 148.757ZM222.4 148.704C224.374 148.704 225.555 149.515 225.555 151.049C225.555 152.476 224.392 153.64 221.219 153.64C218.222 153.64 216.848 152.758 216.848 151.348C216.848 150.538 217.324 149.921 218.258 149.586C217.764 149.304 217.447 148.863 217.447 148.176C217.447 147.488 217.94 147.012 218.54 146.783C217.905 146.254 217.553 145.496 217.553 144.58C217.553 142.764 218.963 141.548 221.096 141.548C222.083 141.548 222.929 141.813 223.546 142.271C224.145 141.989 224.409 141.302 224.409 140.279L225.731 140.561C225.731 142.148 224.674 142.764 224.127 142.853C224.48 143.329 224.674 143.91 224.674 144.58C224.674 146.395 223.246 147.612 221.113 147.612C220.567 147.612 220.056 147.523 219.615 147.382C219.157 147.453 218.857 147.647 218.857 147.982C218.857 148.563 219.527 148.704 220.672 148.704H222.4ZM221.113 142.835C219.915 142.835 219.121 143.522 219.121 144.58C219.121 145.638 219.897 146.325 221.096 146.325C222.312 146.325 223.105 145.638 223.105 144.58C223.105 143.522 222.312 142.835 221.113 142.835ZM221.219 152.335C223.228 152.335 224.021 151.948 224.021 151.049C224.021 150.203 223.352 150.026 222.1 150.026H220.249C218.787 150.026 218.381 150.52 218.381 151.119C218.381 151.965 219.192 152.335 221.219 152.335ZM234.341 146.219H228.101C228.26 147.753 229.3 148.757 230.957 148.757C232.226 148.757 232.948 148.158 233.318 147.664L234.27 148.528C233.495 149.55 232.261 150.062 230.833 150.062C228.172 150.062 226.497 148.352 226.497 145.814C226.497 143.329 228.101 141.531 230.622 141.531C233.072 141.531 234.411 143.24 234.411 145.426C234.411 145.92 234.341 146.219 234.341 146.219ZM230.622 142.835C229.282 142.835 228.366 143.769 228.136 145.109H232.825C232.807 143.734 231.944 142.835 230.622 142.835ZM242.287 138.94C242.287 139.539 241.793 139.98 241.194 139.98C240.595 139.98 240.119 139.539 240.119 138.94C240.119 138.34 240.595 137.882 241.194 137.882C241.793 137.882 242.287 138.34 242.287 138.94ZM240.366 149.956V141.636L241.934 141.584V149.956H240.366ZM249.116 144.615C249.151 144.492 249.169 144.333 249.169 144.21C249.169 143.346 248.411 142.835 247.318 142.835C246.278 142.835 245.679 143.311 245.679 143.998C245.679 145.955 250.685 144.545 250.737 147.7C250.755 149.198 249.327 150.062 247.3 150.062C245.256 150.062 244.181 149.198 243.705 148.81L244.656 147.753C245.009 148.088 246.049 148.757 247.318 148.757C248.552 148.757 249.151 148.317 249.151 147.682C249.151 145.972 244.092 147.065 244.092 143.981C244.092 142.606 245.397 141.531 247.353 141.531C249.31 141.531 250.614 142.553 250.614 143.928C250.614 144.263 250.544 144.509 250.544 144.509L249.116 144.615ZM264.244 148.634L264.332 149.938C264.332 149.938 263.926 150.044 263.486 150.044C262.622 150.044 261.988 149.639 261.988 148.669V148.652H261.952C261.723 149.075 261 150.062 259.062 150.062C257.228 150.062 256.241 149.11 256.241 147.753C256.241 145.937 257.969 145.214 261.635 145.214H261.882V144.686C261.882 143.558 261.194 142.835 259.82 142.835C258.639 142.835 257.916 143.311 257.916 144.175C257.916 144.368 257.951 144.474 258.004 144.598L256.541 144.844C256.541 144.844 256.435 144.527 256.435 144.122C256.435 142.606 257.74 141.531 259.855 141.531C262.111 141.531 263.433 142.747 263.433 144.668V148.035C263.433 148.493 263.556 148.669 263.944 148.669C264.05 148.669 264.173 148.652 264.244 148.634ZM259.379 148.757C261 148.757 261.882 147.858 261.882 147.083V146.29H261.635C258.797 146.29 257.828 146.801 257.828 147.717C257.828 148.37 258.321 148.757 259.379 148.757ZM273.792 141.531C275.925 141.531 277.282 142.782 277.282 144.368C277.282 144.721 277.229 144.932 277.229 144.932L275.784 145.038C275.802 144.95 275.819 144.791 275.819 144.598C275.819 143.575 275.079 142.835 273.828 142.835C272.259 142.835 271.201 144.016 271.201 145.814C271.201 147.576 272.206 148.757 273.969 148.757C275.537 148.757 276.207 148.035 276.524 147.647L277.441 148.634C276.665 149.568 275.414 150.062 273.916 150.062C271.325 150.062 269.615 148.352 269.615 145.849C269.615 143.311 271.342 141.531 273.792 141.531ZM283.619 141.531C285.611 141.531 286.863 142.87 286.863 144.862V149.956H285.294V144.862C285.294 143.646 284.606 142.835 283.355 142.835C281.628 142.835 280.852 144.368 280.852 145.62V149.956H279.283V137.512H280.817V143.099H280.852C281.346 142.236 282.227 141.531 283.619 141.531ZM296.776 148.634L296.864 149.938C296.864 149.938 296.459 150.044 296.018 150.044C295.154 150.044 294.52 149.639 294.52 148.669V148.652H294.485C294.255 149.075 293.533 150.062 291.594 150.062C289.761 150.062 288.774 149.11 288.774 147.753C288.774 145.937 290.501 145.214 294.167 145.214H294.414V144.686C294.414 143.558 293.727 142.835 292.352 142.835C291.171 142.835 290.448 143.311 290.448 144.175C290.448 144.368 290.483 144.474 290.536 144.598L289.073 144.844C289.073 144.844 288.968 144.527 288.968 144.122C288.968 142.606 290.272 141.531 292.387 141.531C294.643 141.531 295.965 142.747 295.965 144.668V148.035C295.965 148.493 296.089 148.669 296.476 148.669C296.582 148.669 296.705 148.652 296.776 148.634ZM291.911 148.757C293.533 148.757 294.414 147.858 294.414 147.083V146.29H294.167C291.33 146.29 290.36 146.801 290.36 147.717C290.36 148.37 290.854 148.757 291.911 148.757ZM298.683 149.956V137.512H300.234V149.956H298.683ZM302.745 149.956V137.512H304.296V149.956H302.745ZM314.14 146.219H307.9C308.059 147.753 309.099 148.757 310.755 148.757C312.024 148.757 312.747 148.158 313.117 147.664L314.069 148.528C313.294 149.55 312.06 150.062 310.632 150.062C307.971 150.062 306.296 148.352 306.296 145.814C306.296 143.329 307.9 141.531 310.421 141.531C312.871 141.531 314.21 143.24 314.21 145.426C314.21 145.92 314.14 146.219 314.14 146.219ZM310.421 142.835C309.081 142.835 308.164 143.769 307.935 145.109H312.624C312.606 143.734 311.742 142.835 310.421 142.835ZM320.472 141.531C322.463 141.531 323.715 142.87 323.715 144.862V149.956H322.146V144.862C322.146 143.646 321.459 142.835 320.207 142.835C318.48 142.835 317.704 144.404 317.704 145.602V149.956H316.153V141.636L317.246 141.584C317.387 142.218 317.458 143.152 317.458 143.522H317.511C317.951 142.482 318.885 141.531 320.472 141.531ZM330.72 148.704C332.695 148.704 333.875 149.515 333.875 151.049C333.875 152.476 332.712 153.64 329.539 153.64C326.543 153.64 325.168 152.758 325.168 151.348C325.168 150.538 325.644 149.921 326.578 149.586C326.085 149.304 325.768 148.863 325.768 148.176C325.768 147.488 326.261 147.012 326.86 146.783C326.226 146.254 325.873 145.496 325.873 144.58C325.873 142.764 327.283 141.548 329.416 141.548C330.403 141.548 331.249 141.813 331.866 142.271C332.465 141.989 332.73 141.302 332.73 140.279L334.052 140.561C334.052 142.148 332.994 142.764 332.448 142.853C332.8 143.329 332.994 143.91 332.994 144.58C332.994 146.395 331.566 147.612 329.434 147.612C328.887 147.612 328.376 147.523 327.936 147.382C327.477 147.453 327.178 147.647 327.178 147.982C327.178 148.563 327.847 148.704 328.993 148.704H330.72ZM329.434 142.835C328.235 142.835 327.442 143.522 327.442 144.58C327.442 145.638 328.218 146.325 329.416 146.325C330.632 146.325 331.425 145.638 331.425 144.58C331.425 143.522 330.632 142.835 329.434 142.835ZM329.539 152.335C331.549 152.335 332.342 151.948 332.342 151.049C332.342 150.203 331.672 150.026 330.421 150.026H328.57C327.107 150.026 326.702 150.52 326.702 151.119C326.702 151.965 327.512 152.335 329.539 152.335ZM342.661 146.219H336.422C336.58 147.753 337.62 148.757 339.277 148.757C340.546 148.757 341.269 148.158 341.639 147.664L342.591 148.528C341.815 149.55 340.581 150.062 339.154 150.062C336.492 150.062 334.818 148.352 334.818 145.814C334.818 143.329 336.422 141.531 338.942 141.531C341.392 141.531 342.732 143.24 342.732 145.426C342.732 145.92 342.661 146.219 342.661 146.219ZM338.942 142.835C337.603 142.835 336.686 143.769 336.457 145.109H341.145C341.128 143.734 340.264 142.835 338.942 142.835Z" fill="#012725"/>
<rect y="181.156" width="377" height="48.961" rx="4.8961" fill="#C4D3AA"/>
<path fill-rule="evenodd" clip-rule="evenodd" d="M21.2995 194.624C22.7126 192.175 26.2478 192.175 27.6609 194.624L36.6628 210.228C38.0752 212.676 36.3084 215.735 33.4821 215.735H15.4783C12.6521 215.735 10.8853 212.676 12.2976 210.228L21.2995 194.624ZM24.4805 201.046C24.9875 201.046 25.3985 201.457 25.3985 201.964V206.554C25.3985 207.061 24.9875 207.472 24.4805 207.472C23.9735 207.472 23.5625 207.061 23.5625 206.554V201.964C23.5625 201.457 23.9735 201.046 24.4805 201.046ZM24.4805 211.145C24.9875 211.145 25.3985 210.734 25.3985 210.227C25.3985 209.72 24.9875 209.309 24.4805 209.309C23.9735 209.309 23.5625 209.72 23.5625 210.227C23.5625 210.734 23.9735 211.145 24.4805 211.145Z" fill="#003310"/>
<path d="M61.29 200.503V212.136H59.6861L59.7213 204.98C59.7213 204.487 59.7742 203.553 59.7918 203.464L59.7213 203.447C59.6684 203.641 59.4217 204.469 59.2807 204.769L55.9141 212.172H54.9271L51.4371 204.645C51.1727 204.081 51.067 203.535 51.0493 203.447L50.9788 203.464C50.9965 203.553 51.0493 204.487 51.0493 204.98L51.0846 212.136H49.4806V200.503H51.2256L54.7508 208.223C54.9623 208.699 55.2972 209.545 55.403 209.845H55.4382C55.5263 209.545 55.8965 208.699 56.108 208.223L59.6332 200.503H61.29ZM65.9582 201.12C65.9582 201.719 65.4646 202.16 64.8654 202.16C64.2661 202.16 63.7902 201.719 63.7902 201.12C63.7902 200.521 64.2661 200.063 64.8654 200.063C65.4646 200.063 65.9582 200.521 65.9582 201.12ZM64.0369 212.136V203.817L65.6056 203.764V212.136H64.0369ZM72.7873 206.796C72.8225 206.672 72.8401 206.514 72.8401 206.39C72.8401 205.527 72.0822 205.016 70.9894 205.016C69.9495 205.016 69.3502 205.491 69.3502 206.179C69.3502 208.135 74.356 206.725 74.4089 209.88C74.4265 211.378 72.9988 212.242 70.9718 212.242C68.9272 212.242 67.852 211.378 67.3761 210.991L68.3279 209.933C68.6804 210.268 69.7203 210.938 70.9894 210.938C72.2232 210.938 72.8225 210.497 72.8225 209.863C72.8225 208.153 67.7639 209.246 67.7639 206.161C67.7639 204.786 69.0682 203.711 71.0247 203.711C72.9811 203.711 74.2855 204.734 74.2855 206.108C74.2855 206.443 74.215 206.69 74.215 206.69L72.7873 206.796ZM81.0839 206.796C81.1191 206.672 81.1367 206.514 81.1367 206.39C81.1367 205.527 80.3788 205.016 79.286 205.016C78.2461 205.016 77.6468 205.491 77.6468 206.179C77.6468 208.135 82.6526 206.725 82.7055 209.88C82.7231 211.378 81.2954 212.242 79.2684 212.242C77.2238 212.242 76.1486 211.378 75.6727 210.991L76.6245 209.933C76.977 210.268 78.0169 210.938 79.286 210.938C80.5198 210.938 81.1191 210.497 81.1191 209.863C81.1191 208.153 76.0605 209.246 76.0605 206.161C76.0605 204.786 77.3648 203.711 79.3213 203.711C81.2778 203.711 82.5821 204.734 82.5821 206.108C82.5821 206.443 82.5116 206.69 82.5116 206.69L81.0839 206.796ZM92.042 208.4H85.8024C85.961 209.933 87.001 210.938 88.6578 210.938C89.9269 210.938 90.6495 210.339 91.0197 209.845L91.9715 210.709C91.1959 211.731 89.9621 212.242 88.5344 212.242C85.8729 212.242 84.1984 210.532 84.1984 207.994C84.1984 205.509 85.8024 203.711 88.3229 203.711C90.7729 203.711 92.1125 205.421 92.1125 207.607C92.1125 208.1 92.042 208.4 92.042 208.4ZM88.3229 205.016C86.9833 205.016 86.0668 205.95 85.8376 207.289H90.5262C90.5085 205.914 89.6449 205.016 88.3229 205.016ZM100.454 199.692H102.005V212.136L100.859 212.189C100.771 211.608 100.683 210.585 100.701 210.25H100.648C100.172 211.361 99.132 212.242 97.5281 212.242C95.1838 212.242 93.5622 210.532 93.5622 207.959C93.5622 205.403 95.1838 203.711 97.6162 203.711C98.9734 203.711 99.9076 204.31 100.454 205.121V199.692ZM97.8101 210.938C99.5727 210.938 100.454 209.369 100.454 208.135V207.8C100.454 206.549 99.6256 205.016 97.7043 205.016C96.1532 205.016 95.1486 206.196 95.1486 207.959C95.1486 209.739 96.1709 210.938 97.8101 210.938ZM112.235 203.711C114.808 203.711 116.518 205.491 116.518 208.012C116.518 210.532 114.808 212.242 112.235 212.242C109.661 212.242 107.952 210.532 107.952 208.012C107.952 205.491 109.661 203.711 112.235 203.711ZM112.235 210.938C113.856 210.938 114.932 209.739 114.932 208.012C114.932 206.285 113.856 205.016 112.235 205.016C110.613 205.016 109.538 206.285 109.538 208.012C109.538 209.739 110.613 210.938 112.235 210.938ZM122.112 203.711C122.482 203.711 122.87 203.764 123.187 203.852L122.799 205.421C122.623 205.315 122.376 205.227 122.024 205.227C121.089 205.227 120.032 206.055 120.032 207.783V212.136H118.481V203.817L119.574 203.764C119.715 204.399 119.785 205.333 119.785 205.703H119.856C120.173 204.61 120.878 203.711 122.112 203.711ZM130.042 201.12C130.042 201.719 129.548 202.16 128.949 202.16C128.35 202.16 127.874 201.719 127.874 201.12C127.874 200.521 128.35 200.063 128.949 200.063C129.548 200.063 130.042 200.521 130.042 201.12ZM128.12 212.136V203.817L129.689 203.764V212.136H128.12ZM136.501 203.711C138.492 203.711 139.744 205.051 139.744 207.043V212.136H138.175V207.043C138.175 205.826 137.488 205.016 136.236 205.016C134.509 205.016 133.733 206.584 133.733 207.783V212.136H132.182V203.817L133.275 203.764C133.416 204.399 133.487 205.333 133.487 205.703H133.539C133.98 204.663 134.914 203.711 136.501 203.711ZM145.797 203.711C147.93 203.711 149.287 204.963 149.287 206.549C149.287 206.901 149.235 207.113 149.235 207.113L147.789 207.219C147.807 207.131 147.824 206.972 147.824 206.778C147.824 205.756 147.084 205.016 145.833 205.016C144.264 205.016 143.206 206.196 143.206 207.994C143.206 209.757 144.211 210.938 145.974 210.938C147.542 210.938 148.212 210.215 148.53 209.827L149.446 210.814C148.671 211.749 147.419 212.242 145.921 212.242C143.33 212.242 141.62 210.532 141.62 208.03C141.62 205.491 143.347 203.711 145.797 203.711ZM155.06 203.711C157.634 203.711 159.344 205.491 159.344 208.012C159.344 210.532 157.634 212.242 155.06 212.242C152.487 212.242 150.777 210.532 150.777 208.012C150.777 205.491 152.487 203.711 155.06 203.711ZM155.06 210.938C156.682 210.938 157.757 209.739 157.757 208.012C157.757 206.285 156.682 205.016 155.06 205.016C153.439 205.016 152.364 206.285 152.364 208.012C152.364 209.739 153.439 210.938 155.06 210.938ZM164.937 203.711C165.308 203.711 165.695 203.764 166.013 203.852L165.625 205.421C165.449 205.315 165.202 205.227 164.849 205.227C163.915 205.227 162.858 206.055 162.858 207.783V212.136H161.306V203.817L162.399 203.764C162.54 204.399 162.611 205.333 162.611 205.703H162.681C162.999 204.61 163.704 203.711 164.937 203.711ZM171.014 203.711C171.384 203.711 171.771 203.764 172.089 203.852L171.701 205.421C171.525 205.315 171.278 205.227 170.925 205.227C169.991 205.227 168.934 206.055 168.934 207.783V212.136H167.383V203.817L168.475 203.764C168.616 204.399 168.687 205.333 168.687 205.703H168.757C169.075 204.61 169.78 203.711 171.014 203.711ZM180.533 208.4H174.294C174.452 209.933 175.492 210.938 177.149 210.938C178.418 210.938 179.141 210.339 179.511 209.845L180.463 210.709C179.687 211.731 178.453 212.242 177.026 212.242C174.364 212.242 172.69 210.532 172.69 207.994C172.69 205.509 174.294 203.711 176.814 203.711C179.264 203.711 180.604 205.421 180.604 207.607C180.604 208.1 180.533 208.4 180.533 208.4ZM176.814 205.016C175.475 205.016 174.558 205.95 174.329 207.289H179.018C179 205.914 178.136 205.016 176.814 205.016ZM186.213 203.711C188.346 203.711 189.703 204.963 189.703 206.549C189.703 206.901 189.65 207.113 189.65 207.113L188.205 207.219C188.223 207.131 188.24 206.972 188.24 206.778C188.24 205.756 187.5 205.016 186.249 205.016C184.68 205.016 183.622 206.196 183.622 207.994C183.622 209.757 184.627 210.938 186.39 210.938C187.958 210.938 188.628 210.215 188.945 209.827L189.862 210.814C189.086 211.749 187.835 212.242 186.337 212.242C183.746 212.242 182.036 210.532 182.036 208.03C182.036 205.491 183.763 203.711 186.213 203.711ZM196.836 210.444L197.33 211.696C197.33 211.696 196.502 212.242 195.144 212.242C192.994 212.242 192.13 211.096 192.13 208.964V205.068H190.808V203.817H192.13V201.349L193.699 201.261V203.817H196.925V205.068H193.699V208.911C193.699 210.25 194.175 210.92 195.303 210.92C196.272 210.92 196.836 210.444 196.836 210.444ZM212.715 203.746C214.707 203.746 215.958 205.086 215.958 207.078V212.136H214.389V207.078C214.389 205.862 213.702 205.051 212.451 205.051C210.882 205.051 210.106 206.584 210.106 207.783V212.136H208.538V207.078C208.538 205.862 207.85 205.051 206.599 205.051C205.03 205.051 204.254 206.584 204.254 207.783V212.136H202.703V203.817L203.796 203.764C203.937 204.399 204.008 205.333 204.008 205.703C204.431 204.645 205.347 203.746 206.863 203.746C208.344 203.746 209.419 204.487 209.86 205.685C210.3 204.628 211.217 203.746 212.715 203.746ZM225.683 208.4H219.443C219.602 209.933 220.642 210.938 222.298 210.938C223.568 210.938 224.29 210.339 224.66 209.845L225.612 210.709C224.837 211.731 223.603 212.242 222.175 212.242C219.514 212.242 217.839 210.532 217.839 207.994C217.839 205.509 219.443 203.711 221.964 203.711C224.414 203.711 225.753 205.421 225.753 207.607C225.753 208.1 225.683 208.4 225.683 208.4ZM221.964 205.016C220.624 205.016 219.707 205.95 219.478 207.289H224.167C224.149 205.914 223.286 205.016 221.964 205.016ZM234.095 199.692H235.646V212.136L234.5 212.189C234.412 211.608 234.324 210.585 234.341 210.25H234.289C233.813 211.361 232.773 212.242 231.169 212.242C228.825 212.242 227.203 210.532 227.203 207.959C227.203 205.403 228.825 203.711 231.257 203.711C232.614 203.711 233.548 204.31 234.095 205.121V199.692ZM231.451 210.938C233.213 210.938 234.095 209.369 234.095 208.135V207.8C234.095 206.549 233.266 205.016 231.345 205.016C229.794 205.016 228.789 206.196 228.789 207.959C228.789 209.739 229.812 210.938 231.451 210.938ZM240.049 201.12C240.049 201.719 239.556 202.16 238.956 202.16C238.357 202.16 237.881 201.719 237.881 201.12C237.881 200.521 238.357 200.063 238.956 200.063C239.556 200.063 240.049 200.521 240.049 201.12ZM238.128 212.136V203.817L239.697 203.764V212.136H238.128ZM245.856 203.711C247.989 203.711 249.346 204.963 249.346 206.549C249.346 206.901 249.293 207.113 249.293 207.113L247.848 207.219C247.865 207.131 247.883 206.972 247.883 206.778C247.883 205.756 247.143 205.016 245.891 205.016C244.322 205.016 243.265 206.196 243.265 207.994C243.265 209.757 244.27 210.938 246.032 210.938C247.601 210.938 248.271 210.215 248.588 209.827L249.504 210.814C248.729 211.749 247.477 212.242 245.979 212.242C243.388 212.242 241.679 210.532 241.679 208.03C241.679 205.491 243.406 203.711 245.856 203.711ZM258.873 210.814L258.961 212.119C258.961 212.119 258.556 212.225 258.115 212.225C257.252 212.225 256.617 211.819 256.617 210.85V210.832H256.582C256.353 211.255 255.63 212.242 253.691 212.242C251.858 212.242 250.871 211.29 250.871 209.933C250.871 208.118 252.598 207.395 256.265 207.395H256.511V206.866C256.511 205.738 255.824 205.016 254.449 205.016C253.268 205.016 252.545 205.491 252.545 206.355C252.545 206.549 252.581 206.655 252.634 206.778L251.171 207.025C251.171 207.025 251.065 206.708 251.065 206.302C251.065 204.786 252.369 203.711 254.484 203.711C256.74 203.711 258.062 204.927 258.062 206.849V210.215C258.062 210.673 258.186 210.85 258.574 210.85C258.679 210.85 258.803 210.832 258.873 210.814ZM254.008 210.938C255.63 210.938 256.511 210.039 256.511 209.263V208.47H256.265C253.427 208.47 252.457 208.981 252.457 209.898C252.457 210.55 252.951 210.938 254.008 210.938ZM265.757 210.444L266.25 211.696C266.25 211.696 265.422 212.242 264.065 212.242C261.914 212.242 261.051 211.096 261.051 208.964V205.068H259.729V203.817H261.051V201.349L262.619 201.261V203.817H265.845V205.068H262.619V208.911C262.619 210.25 263.095 210.92 264.223 210.92C265.193 210.92 265.757 210.444 265.757 210.444ZM269.569 201.12C269.569 201.719 269.076 202.16 268.476 202.16C267.877 202.16 267.401 201.719 267.401 201.12C267.401 200.521 267.877 200.063 268.476 200.063C269.076 200.063 269.569 200.521 269.569 201.12ZM267.648 212.136V203.817L269.217 203.764V212.136H267.648ZM275.482 203.711C278.055 203.711 279.765 205.491 279.765 208.012C279.765 210.532 278.055 212.242 275.482 212.242C272.908 212.242 271.199 210.532 271.199 208.012C271.199 205.491 272.908 203.711 275.482 203.711ZM275.482 210.938C277.103 210.938 278.178 209.739 278.178 208.012C278.178 206.285 277.103 205.016 275.482 205.016C273.86 205.016 272.785 206.285 272.785 208.012C272.785 209.739 273.86 210.938 275.482 210.938ZM286.046 203.711C288.038 203.711 289.289 205.051 289.289 207.043V212.136H287.72V207.043C287.72 205.826 287.033 205.016 285.782 205.016C284.054 205.016 283.279 206.584 283.279 207.783V212.136H281.728V203.817L282.82 203.764C282.961 204.399 283.032 205.333 283.032 205.703H283.085C283.525 204.663 284.46 203.711 286.046 203.711ZM297.609 201.12C297.609 201.719 297.115 202.16 296.516 202.16C295.917 202.16 295.441 201.719 295.441 201.12C295.441 200.521 295.917 200.063 296.516 200.063C297.115 200.063 297.609 200.521 297.609 201.12ZM295.688 212.136V203.817L297.256 203.764V212.136H295.688ZM304.068 203.711C306.06 203.711 307.311 205.051 307.311 207.043V212.136H305.742V207.043C305.742 205.826 305.055 205.016 303.803 205.016C302.076 205.016 301.301 206.584 301.301 207.783V212.136H299.75V203.817L300.842 203.764C300.983 204.399 301.054 205.333 301.054 205.703H301.107C301.547 204.663 302.482 203.711 304.068 203.711ZM314.796 210.444L315.29 211.696C315.29 211.696 314.461 212.242 313.104 212.242C310.954 212.242 310.09 211.096 310.09 208.964V205.068H308.768V203.817H310.09V201.349L311.659 201.261V203.817H314.884V205.068H311.659V208.911C311.659 210.25 312.135 210.92 313.263 210.92C314.232 210.92 314.796 210.444 314.796 210.444ZM324.196 210.814L324.284 212.119C324.284 212.119 323.879 212.225 323.438 212.225C322.574 212.225 321.94 211.819 321.94 210.85V210.832H321.905C321.676 211.255 320.953 212.242 319.014 212.242C317.181 212.242 316.194 211.29 316.194 209.933C316.194 208.118 317.921 207.395 321.587 207.395H321.834V206.866C321.834 205.738 321.147 205.016 319.772 205.016C318.591 205.016 317.868 205.491 317.868 206.355C317.868 206.549 317.904 206.655 317.956 206.778L316.494 207.025C316.494 207.025 316.388 206.708 316.388 206.302C316.388 204.786 317.692 203.711 319.807 203.711C322.063 203.711 323.385 204.927 323.385 206.849V210.215C323.385 210.673 323.509 210.85 323.896 210.85C324.002 210.85 324.126 210.832 324.196 210.814ZM319.331 210.938C320.953 210.938 321.834 210.039 321.834 209.263V208.47H321.587C318.75 208.47 317.78 208.981 317.78 209.898C317.78 210.55 318.274 210.938 319.331 210.938ZM331.814 212.136L328.535 208.312H327.636V212.136H326.085V199.692H327.636V207.06H328.782L331.637 203.817H333.418L329.892 207.712L333.77 212.136H331.814ZM341.904 208.4H335.664C335.823 209.933 336.863 210.938 338.52 210.938C339.789 210.938 340.511 210.339 340.882 209.845L341.833 210.709C341.058 211.731 339.824 212.242 338.396 212.242C335.735 212.242 334.06 210.532 334.06 207.994C334.06 205.509 335.664 203.711 338.185 203.711C340.635 203.711 341.974 205.421 341.974 207.607C341.974 208.1 341.904 208.4 341.904 208.4ZM338.185 205.016C336.845 205.016 335.929 205.95 335.7 207.289H340.388C340.37 205.914 339.507 205.016 338.185 205.016Z" fill="#012725"/>
<rect y="243.336" width="377" height="48.961" rx="4.8961" fill="#C4D3AA"/>
<path fill-rule="evenodd" clip-rule="evenodd" d="M21.2995 256.805C22.7126 254.355 26.2478 254.355 27.6609 256.805L36.6628 272.408C38.0752 274.856 36.3084 277.915 33.4821 277.915H15.4783C12.6521 277.915 10.8853 274.856 12.2976 272.408L21.2995 256.805ZM24.4805 263.227C24.9875 263.227 25.3985 263.638 25.3985 264.145V268.735C25.3985 269.242 24.9875 269.653 24.4805 269.653C23.9735 269.653 23.5625 269.242 23.5625 268.735V264.145C23.5625 263.638 23.9735 263.227 24.4805 263.227ZM24.4805 273.325C24.9875 273.325 25.3985 272.914 25.3985 272.407C25.3985 271.9 24.9875 271.489 24.4805 271.489C23.9735 271.489 23.5625 271.9 23.5625 272.407C23.5625 272.914 23.9735 273.325 24.4805 273.325Z" fill="#003310"/>
<path d="M55.403 265.786C55.2972 265.169 54.6627 263.988 52.8472 263.988C51.49 263.988 50.6087 264.64 50.6087 265.751C50.6087 268.218 56.9717 266.967 56.9717 271.32C56.9717 273.189 55.3325 274.423 52.8296 274.423C50.7497 274.423 49.2515 273.647 48.5465 273.048L49.5511 271.796C50.027 272.219 51.067 273.013 52.8296 273.013C54.4335 273.013 55.3853 272.36 55.3853 271.32C55.3853 268.218 48.9871 269.734 48.9871 265.768C48.9871 263.865 50.5734 262.578 52.8472 262.578C56.0022 262.578 56.6897 264.587 56.9012 265.416L55.403 265.786ZM64.2629 272.625L64.7564 273.876C64.7564 273.876 63.928 274.423 62.5708 274.423C60.4204 274.423 59.5568 273.277 59.5568 271.144V267.249H58.2348V265.997H59.5568V263.53L61.1255 263.442V265.997H64.351V267.249H61.1255V271.091C61.1255 272.431 61.6014 273.101 62.7294 273.101C63.6989 273.101 64.2629 272.625 64.2629 272.625ZM68.0753 263.301C68.0753 263.9 67.5818 264.341 66.9825 264.341C66.3832 264.341 65.9073 263.9 65.9073 263.301C65.9073 262.701 66.3832 262.243 66.9825 262.243C67.5818 262.243 68.0753 262.701 68.0753 263.301ZM66.1541 274.317V265.997L67.7228 265.945V274.317H66.1541ZM74.8339 273.065C76.8081 273.065 77.989 273.876 77.989 275.41C77.989 276.837 76.8257 278.001 73.653 278.001C70.6566 278.001 69.2818 277.119 69.2818 275.709C69.2818 274.899 69.7577 274.282 70.6918 273.947C70.1983 273.665 69.881 273.224 69.881 272.537C69.881 271.849 70.3746 271.373 70.9739 271.144C70.3393 270.615 69.9868 269.858 69.9868 268.941C69.9868 267.125 71.3969 265.909 73.5296 265.909C74.5167 265.909 75.3627 266.174 75.9796 266.632C76.5789 266.35 76.8433 265.663 76.8433 264.64L78.1653 264.922C78.1653 266.509 77.1077 267.125 76.5613 267.214C76.9138 267.69 77.1077 268.271 77.1077 268.941C77.1077 270.756 75.68 271.973 73.5472 271.973C73.0008 271.973 72.4897 271.885 72.049 271.744C71.5908 271.814 71.2911 272.008 71.2911 272.343C71.2911 272.924 71.9609 273.065 73.1066 273.065H74.8339ZM73.5472 267.196C72.3487 267.196 71.5555 267.883 71.5555 268.941C71.5555 269.999 72.3311 270.686 73.5296 270.686C74.7458 270.686 75.539 269.999 75.539 268.941C75.539 267.883 74.7458 267.196 73.5472 267.196ZM73.653 276.696C75.6624 276.696 76.4555 276.309 76.4555 275.41C76.4555 274.564 75.7857 274.387 74.5343 274.387H72.6836C71.2206 274.387 70.8152 274.881 70.8152 275.48C70.8152 276.326 71.626 276.696 73.653 276.696ZM89.5741 265.927C91.5658 265.927 92.8173 267.267 92.8173 269.258V274.317H91.2485V269.258C91.2485 268.042 90.5611 267.231 89.3097 267.231C87.741 267.231 86.9654 268.765 86.9654 269.963V274.317H85.3967V269.258C85.3967 268.042 84.7093 267.231 83.4579 267.231C81.8892 267.231 81.1136 268.765 81.1136 269.963V274.317H79.5625V265.997L80.6553 265.945C80.7963 266.579 80.8668 267.513 80.8668 267.883C81.2899 266.826 82.2064 265.927 83.7223 265.927C85.2028 265.927 86.278 266.667 86.7187 267.866C87.1593 266.808 88.0759 265.927 89.5741 265.927ZM102.718 272.995L102.806 274.299C102.806 274.299 102.401 274.405 101.96 274.405C101.097 274.405 100.462 274 100.462 273.03V273.013H100.427C100.198 273.436 99.4749 274.423 97.5361 274.423C95.703 274.423 94.7159 273.471 94.7159 272.114C94.7159 270.298 96.4432 269.576 100.109 269.576H100.356V269.047C100.356 267.919 99.6688 267.196 98.294 267.196C97.113 267.196 96.3904 267.672 96.3904 268.536C96.3904 268.729 96.4256 268.835 96.4785 268.959L95.0155 269.205C95.0155 269.205 94.9098 268.888 94.9098 268.483C94.9098 266.967 96.2141 265.892 98.3292 265.892C100.585 265.892 101.907 267.108 101.907 269.029V272.396C101.907 272.854 102.031 273.03 102.418 273.03C102.524 273.03 102.648 273.013 102.718 272.995ZM97.8533 273.118C99.4749 273.118 100.356 272.219 100.356 271.444V270.651H100.109C97.2717 270.651 96.3022 271.162 96.3022 272.078C96.3022 272.731 96.7958 273.118 97.8533 273.118ZM116.127 272.995L116.215 274.299C116.215 274.299 115.81 274.405 115.369 274.405C114.505 274.405 113.871 274 113.871 273.03V273.013H113.836C113.606 273.436 112.884 274.423 110.945 274.423C109.112 274.423 108.125 273.471 108.125 272.114C108.125 270.298 109.852 269.576 113.518 269.576H113.765V269.047C113.765 267.919 113.078 267.196 111.703 267.196C110.522 267.196 109.799 267.672 109.799 268.536C109.799 268.729 109.834 268.835 109.887 268.959L108.424 269.205C108.424 269.205 108.319 268.888 108.319 268.483C108.319 266.967 109.623 265.892 111.738 265.892C113.994 265.892 115.316 267.108 115.316 269.029V272.396C115.316 272.854 115.44 273.03 115.827 273.03C115.933 273.03 116.056 273.013 116.127 272.995ZM111.262 273.118C112.884 273.118 113.765 272.219 113.765 271.444V270.651H113.518C110.68 270.651 109.711 271.162 109.711 272.078C109.711 272.731 110.205 273.118 111.262 273.118ZM122.334 265.892C124.326 265.892 125.578 267.231 125.578 269.223V274.317H124.009V269.223C124.009 268.007 123.321 267.196 122.07 267.196C120.343 267.196 119.567 268.765 119.567 269.963V274.317H118.016V265.997L119.109 265.945C119.25 266.579 119.32 267.513 119.32 267.883H119.373C119.814 266.843 120.748 265.892 122.334 265.892ZM134.363 261.873H135.914V274.317L134.769 274.37C134.681 273.788 134.592 272.766 134.61 272.431H134.557C134.081 273.541 133.041 274.423 131.437 274.423C129.093 274.423 127.472 272.713 127.472 270.14C127.472 267.584 129.093 265.892 131.526 265.892C132.883 265.892 133.817 266.491 134.363 267.302V261.873ZM131.719 273.118C133.482 273.118 134.363 271.55 134.363 270.316V269.981C134.363 268.729 133.535 267.196 131.614 267.196C130.063 267.196 129.058 268.377 129.058 270.14C129.058 271.92 130.08 273.118 131.719 273.118ZM149.899 272.995L149.987 274.299C149.987 274.299 149.581 274.405 149.141 274.405C148.277 274.405 147.642 274 147.642 273.03V273.013H147.607C147.378 273.436 146.655 274.423 144.717 274.423C142.883 274.423 141.896 273.471 141.896 272.114C141.896 270.298 143.624 269.576 147.29 269.576H147.537V269.047C147.537 267.919 146.849 267.196 145.474 267.196C144.294 267.196 143.571 267.672 143.571 268.536C143.571 268.729 143.606 268.835 143.659 268.959L142.196 269.205C142.196 269.205 142.09 268.888 142.09 268.483C142.09 266.967 143.395 265.892 145.51 265.892C147.766 265.892 149.088 267.108 149.088 269.029V272.396C149.088 272.854 149.211 273.03 149.599 273.03C149.705 273.03 149.828 273.013 149.899 272.995ZM145.034 273.118C146.655 273.118 147.537 272.219 147.537 271.444V270.651H147.29C144.452 270.651 143.483 271.162 143.483 272.078C143.483 272.731 143.976 273.118 145.034 273.118ZM160.47 268.976C160.505 268.853 160.522 268.694 160.522 268.571C160.522 267.707 159.765 267.196 158.672 267.196C157.632 267.196 157.033 267.672 157.033 268.359C157.033 270.316 162.038 268.906 162.091 272.061C162.109 273.559 160.681 274.423 158.654 274.423C156.61 274.423 155.534 273.559 155.058 273.171L156.01 272.114C156.363 272.449 157.403 273.118 158.672 273.118C159.906 273.118 160.505 272.678 160.505 272.043C160.505 270.333 155.446 271.426 155.446 268.342C155.446 266.967 156.751 265.892 158.707 265.892C160.663 265.892 161.968 266.914 161.968 268.289C161.968 268.624 161.897 268.87 161.897 268.87L160.47 268.976ZM169.21 272.625L169.703 273.876C169.703 273.876 168.875 274.423 167.518 274.423C165.367 274.423 164.504 273.277 164.504 271.144V267.249H163.182V265.997H164.504V263.53L166.072 263.442V265.997H169.298V267.249H166.072V271.091C166.072 272.431 166.548 273.101 167.676 273.101C168.646 273.101 169.21 272.625 169.21 272.625ZM174.714 265.892C175.084 265.892 175.472 265.945 175.789 266.033L175.402 267.601C175.225 267.496 174.979 267.408 174.626 267.408C173.692 267.408 172.634 268.236 172.634 269.963V274.317H171.083V265.997L172.176 265.945C172.317 266.579 172.388 267.513 172.388 267.883H172.458C172.775 266.791 173.48 265.892 174.714 265.892ZM184.234 270.58H177.995C178.153 272.114 179.193 273.118 180.85 273.118C182.119 273.118 182.842 272.519 183.212 272.026L184.164 272.889C183.388 273.911 182.154 274.423 180.727 274.423C178.065 274.423 176.391 272.713 176.391 270.175C176.391 267.69 177.995 265.892 180.515 265.892C182.965 265.892 184.305 267.601 184.305 269.787C184.305 270.281 184.234 270.58 184.234 270.58ZM180.515 267.196C179.175 267.196 178.259 268.13 178.03 269.47H182.718C182.701 268.095 181.837 267.196 180.515 267.196ZM190.936 268.976C190.972 268.853 190.989 268.694 190.989 268.571C190.989 267.707 190.231 267.196 189.139 267.196C188.099 267.196 187.499 267.672 187.499 268.359C187.499 270.316 192.505 268.906 192.558 272.061C192.576 273.559 191.148 274.423 189.121 274.423C187.076 274.423 186.001 273.559 185.525 273.171L186.477 272.114C186.83 272.449 187.869 273.118 189.139 273.118C190.372 273.118 190.972 272.678 190.972 272.043C190.972 270.333 185.913 271.426 185.913 268.342C185.913 266.967 187.217 265.892 189.174 265.892C191.13 265.892 192.435 266.914 192.435 268.289C192.435 268.624 192.364 268.87 192.364 268.87L190.936 268.976ZM199.233 268.976C199.268 268.853 199.286 268.694 199.286 268.571C199.286 267.707 198.528 267.196 197.435 267.196C196.395 267.196 195.796 267.672 195.796 268.359C195.796 270.316 200.802 268.906 200.855 272.061C200.872 273.559 199.444 274.423 197.418 274.423C195.373 274.423 194.298 273.559 193.822 273.171L194.774 272.114C195.126 272.449 196.166 273.118 197.435 273.118C198.669 273.118 199.268 272.678 199.268 272.043C199.268 270.333 194.21 271.426 194.21 268.342C194.21 266.967 195.514 265.892 197.47 265.892C199.427 265.892 200.731 266.914 200.731 268.289C200.731 268.624 200.661 268.87 200.661 268.87L199.233 268.976ZM206.633 263.072C205.54 263.072 204.941 263.812 204.941 264.94V265.997H207.778V267.249H204.941V274.317H203.39V267.249H202.156V265.997H203.39V264.975C203.39 263.054 204.623 261.767 206.492 261.767C207.426 261.767 208.184 262.102 208.36 262.208L207.814 263.442C207.62 263.336 207.267 263.072 206.633 263.072ZM214.973 265.997H216.524V274.317L215.396 274.37C215.255 273.735 215.184 272.801 215.184 272.607H215.167C214.708 273.612 213.827 274.423 212.399 274.423C210.408 274.423 209.156 273.083 209.156 271.091V265.997H210.725V271.091C210.725 272.308 211.412 273.118 212.664 273.118C214.197 273.118 214.973 271.55 214.973 270.351V265.997ZM219.004 274.317V261.873H220.555V274.317H219.004ZM232.771 265.997H234.322V274.317L233.194 274.37C233.053 273.735 232.982 272.801 232.982 272.607H232.965C232.506 273.612 231.625 274.423 230.197 274.423C228.206 274.423 226.954 273.083 226.954 271.091V265.997H228.523V271.091C228.523 272.308 229.21 273.118 230.462 273.118C231.995 273.118 232.771 271.55 232.771 270.351V265.997ZM241.473 268.976C241.509 268.853 241.526 268.694 241.526 268.571C241.526 267.707 240.768 267.196 239.676 267.196C238.636 267.196 238.036 267.672 238.036 268.359C238.036 270.316 243.042 268.906 243.095 272.061C243.113 273.559 241.685 274.423 239.658 274.423C237.613 274.423 236.538 273.559 236.062 273.171L237.014 272.114C237.367 272.449 238.406 273.118 239.676 273.118C240.909 273.118 241.509 272.678 241.509 272.043C241.509 270.333 236.45 271.426 236.45 268.342C236.45 266.967 237.754 265.892 239.711 265.892C241.667 265.892 242.972 266.914 242.972 268.289C242.972 268.624 242.901 268.87 242.901 268.87L241.473 268.976ZM252.431 270.58H246.192C246.351 272.114 247.39 273.118 249.047 273.118C250.316 273.118 251.039 272.519 251.409 272.026L252.361 272.889C251.585 273.911 250.352 274.423 248.924 274.423C246.262 274.423 244.588 272.713 244.588 270.175C244.588 267.69 246.192 265.892 248.712 265.892C251.162 265.892 252.502 267.601 252.502 269.787C252.502 270.281 252.431 270.58 252.431 270.58ZM248.712 267.196C247.373 267.196 246.456 268.13 246.227 269.47H250.916C250.898 268.095 250.034 267.196 248.712 267.196ZM258.076 265.892C258.446 265.892 258.834 265.945 259.151 266.033L258.764 267.601C258.587 267.496 258.341 267.408 257.988 267.408C257.054 267.408 255.996 268.236 255.996 269.963V274.317H254.445V265.997L255.538 265.945C255.679 266.579 255.75 267.513 255.75 267.883H255.82C256.137 266.791 256.842 265.892 258.076 265.892ZM271.417 270.58H265.178C265.336 272.114 266.376 273.118 268.033 273.118C269.302 273.118 270.025 272.519 270.395 272.026L271.347 272.889C270.571 273.911 269.337 274.423 267.91 274.423C265.248 274.423 263.574 272.713 263.574 270.175C263.574 267.69 265.178 265.892 267.698 265.892C270.148 265.892 271.488 267.601 271.488 269.787C271.488 270.281 271.417 270.58 271.417 270.58ZM267.698 267.196C266.359 267.196 265.442 268.13 265.213 269.47H269.901C269.884 268.095 269.02 267.196 267.698 267.196ZM277.069 270.122L280.154 274.317H278.32L276.452 271.708C276.329 271.55 276.205 271.356 276.188 271.215H276.152C276.117 271.356 275.994 271.55 275.87 271.708L274.002 274.317H272.239L275.289 270.21L272.169 265.997H274.002L275.747 268.483C275.888 268.694 276.135 269.064 276.17 269.188H276.205C276.241 269.064 276.452 268.694 276.593 268.483L278.338 265.997H280.101L277.069 270.122ZM286.136 265.892C288.48 265.892 290.102 267.601 290.102 270.175C290.102 272.731 288.48 274.423 286.048 274.423C284.743 274.423 283.774 273.806 283.21 272.942V277.913H281.659V265.997L282.752 265.945C282.875 266.509 282.981 267.549 282.963 267.883H282.981C283.439 266.808 284.426 265.892 286.136 265.892ZM285.96 273.118C287.511 273.118 288.515 271.937 288.515 270.175C288.515 268.395 287.493 267.196 285.854 267.196C284.091 267.196 283.21 268.765 283.21 269.999V270.333C283.21 271.585 284.038 273.118 285.96 273.118ZM299.423 270.58H293.183C293.342 272.114 294.382 273.118 296.038 273.118C297.307 273.118 298.03 272.519 298.4 272.026L299.352 272.889C298.577 273.911 297.343 274.423 295.915 274.423C293.254 274.423 291.579 272.713 291.579 270.175C291.579 267.69 293.183 265.892 295.704 265.892C298.154 265.892 299.493 267.601 299.493 269.787C299.493 270.281 299.423 270.58 299.423 270.58ZM295.704 267.196C294.364 267.196 293.447 268.13 293.218 269.47H297.907C297.889 268.095 297.025 267.196 295.704 267.196ZM305.067 265.892C305.437 265.892 305.825 265.945 306.142 266.033L305.755 267.601C305.578 267.496 305.332 267.408 304.979 267.408C304.045 267.408 302.987 268.236 302.987 269.963V274.317H301.436V265.997L302.529 265.945C302.67 266.579 302.741 267.513 302.741 267.883H302.811C303.128 266.791 303.833 265.892 305.067 265.892ZM309.451 263.301C309.451 263.9 308.958 264.341 308.359 264.341C307.759 264.341 307.283 263.9 307.283 263.301C307.283 262.701 307.759 262.243 308.359 262.243C308.958 262.243 309.451 262.701 309.451 263.301ZM307.53 274.317V265.997L309.099 265.945V274.317H307.53ZM318.942 270.58H312.702C312.861 272.114 313.901 273.118 315.558 273.118C316.827 273.118 317.55 272.519 317.92 272.026L318.871 272.889C318.096 273.911 316.862 274.423 315.434 274.423C312.773 274.423 311.098 272.713 311.098 270.175C311.098 267.69 312.702 265.892 315.223 265.892C317.673 265.892 319.012 267.601 319.012 269.787C319.012 270.281 318.942 270.58 318.942 270.58ZM315.223 267.196C313.883 267.196 312.967 268.13 312.738 269.47H317.426C317.409 268.095 316.545 267.196 315.223 267.196ZM325.274 265.892C327.266 265.892 328.517 267.231 328.517 269.223V274.317H326.949V269.223C326.949 268.007 326.261 267.196 325.01 267.196C323.282 267.196 322.507 268.765 322.507 269.963V274.317H320.956V265.997L322.049 265.945C322.19 266.579 322.26 267.513 322.26 267.883H322.313C322.754 266.843 323.688 265.892 325.274 265.892ZM334.571 265.892C336.704 265.892 338.061 267.143 338.061 268.729C338.061 269.082 338.008 269.293 338.008 269.293L336.563 269.399C336.58 269.311 336.598 269.152 336.598 268.959C336.598 267.936 335.858 267.196 334.606 267.196C333.038 267.196 331.98 268.377 331.98 270.175C331.98 271.937 332.985 273.118 334.747 273.118C336.316 273.118 336.986 272.396 337.303 272.008L338.22 272.995C337.444 273.929 336.193 274.423 334.694 274.423C332.103 274.423 330.394 272.713 330.394 270.21C330.394 267.672 332.121 265.892 334.571 265.892ZM347.412 270.58H341.172C341.331 272.114 342.371 273.118 344.028 273.118C345.297 273.118 346.02 272.519 346.39 272.026L347.342 272.889C346.566 273.911 345.332 274.423 343.904 274.423C341.243 274.423 339.569 272.713 339.569 270.175C339.569 267.69 341.172 265.892 343.693 265.892C346.143 265.892 347.483 267.601 347.483 269.787C347.483 270.281 347.412 270.58 347.412 270.58ZM343.693 267.196C342.353 267.196 341.437 268.13 341.208 269.47H345.896C345.879 268.095 345.015 267.196 343.693 267.196Z" fill="#012725"/>
<path d="M8.2137 15.9824L4.81189 11.2939H3.52519V16H1.30432V4.36686H3.52519V9.51364H4.68851L8.2137 4.36686H10.5227L6.34535 10.3244L10.558 15.9824H8.2137ZM14.8155 14.4313C16.014 14.4313 16.6662 13.8673 17.0187 13.4442L18.1115 14.6252C17.477 15.4536 16.2608 16.1058 14.5863 16.1058C11.819 16.1058 10.1446 14.3608 10.1446 11.8579C10.1446 9.35501 11.8014 7.57478 14.3572 7.57478C16.7896 7.57478 18.182 9.24925 18.182 11.4878C18.182 12.0165 18.0939 12.3514 18.0939 12.3514H12.3126C12.5065 13.5852 13.3525 14.4313 14.8155 14.4313ZM14.3572 9.24925C13.282 9.24925 12.5065 9.97192 12.3126 11.1352H16.155C16.1374 10.0424 15.45 9.24925 14.3572 9.24925ZM23.5706 17.2162C23.0418 18.6086 22.1077 19.6838 20.3803 19.6838C19.4814 19.6838 18.8997 19.3842 18.8997 19.3842L19.2346 17.7097C19.2346 17.7097 19.6753 17.9389 20.2041 17.9389C20.9972 17.9389 21.385 17.5158 21.667 16.8637L21.8961 16.3173L18.4238 7.68054H20.7505L22.6364 12.8802C22.7951 13.3209 22.8303 13.5147 22.9008 13.9378H22.9361C23.0242 13.4971 23.0771 13.2856 23.2181 12.8802L25.0688 7.68054H27.2368L23.5706 17.2162ZM35.0063 7.57478C37.1743 7.57478 38.4962 8.86148 38.4962 10.4831C38.4962 10.8356 38.4434 11.0647 38.4434 11.0647L36.5221 11.1881C36.5397 11.1352 36.5574 10.9766 36.5574 10.8003C36.5574 9.98954 36.011 9.33738 34.9887 9.33738C33.7372 9.33738 32.9088 10.3244 32.9088 11.805C32.9088 13.3209 33.7196 14.3432 35.2531 14.3432C36.6279 14.3432 37.3505 13.6557 37.6149 13.3385L38.7077 14.6781C38.1085 15.436 36.8746 16.1058 35.1297 16.1058C32.3976 16.1058 30.7232 14.3608 30.7232 11.8755C30.7232 9.33738 32.4681 7.57478 35.0063 7.57478ZM44.6247 7.57478C46.6869 7.57478 47.7797 8.96724 47.7797 10.8885V16H45.6294V11.1881C45.6294 10.1129 45.083 9.40789 44.0078 9.40789C42.633 9.40789 42.0161 10.6241 42.0161 11.6816V16H39.8657V3.55606H41.9808V9.07299H42.0337C42.4743 8.22694 43.2851 7.57478 44.6247 7.57478ZM57.3935 14.2903L57.4816 15.9647C57.4816 15.9647 57.0057 16.0881 56.424 16.0881C55.3489 16.0881 54.7496 15.6651 54.6086 14.7662C54.3618 15.2421 53.6568 16.1058 51.8765 16.1058C50.0611 16.1058 49.0564 15.1892 49.0564 13.8144C49.0564 11.8226 51.0834 11.241 54.3618 11.1881H54.5028V10.7827C54.5028 9.84853 53.9388 9.23163 52.8283 9.23163C51.806 9.23163 51.242 9.63702 51.242 10.3244C51.242 10.4654 51.2773 10.5712 51.3125 10.6593L49.4089 10.9766C49.4089 10.9766 49.3032 10.6417 49.3032 10.2011C49.3032 8.63234 50.6604 7.57478 52.8989 7.57478C55.2784 7.57478 56.6003 8.8086 56.6003 10.8356V13.7615C56.6003 14.1845 56.7413 14.3255 57.0938 14.3255C57.1996 14.3255 57.3053 14.3079 57.3935 14.2903ZM52.4406 14.4665C53.7449 14.4665 54.5028 13.7791 54.5028 13.0741V12.369H54.3618C52.1057 12.4043 51.1539 12.7568 51.1539 13.5852C51.1539 14.1493 51.6122 14.4665 52.4406 14.4665ZM58.6632 16V3.55606H60.796V16H58.6632ZM62.5967 16V3.55606H64.7295V16H62.5967ZM70.7428 14.4313C71.9414 14.4313 72.5935 13.8673 72.9461 13.4442L74.0389 14.6252C73.4043 15.4536 72.1881 16.1058 70.5137 16.1058C67.7464 16.1058 66.0719 14.3608 66.0719 11.8579C66.0719 9.35501 67.7288 7.57478 70.2845 7.57478C72.7169 7.57478 74.1094 9.24925 74.1094 11.4878C74.1094 12.0165 74.0212 12.3514 74.0212 12.3514H68.2399C68.4338 13.5852 69.2799 14.4313 70.7428 14.4313ZM70.2845 9.24925C69.2094 9.24925 68.4338 9.97192 68.2399 11.1352H72.0824C72.0648 10.0424 71.3774 9.24925 70.2845 9.24925ZM80.1968 7.57478C82.2414 7.57478 83.3519 8.96724 83.3519 10.8885V16H81.2015V11.1881C81.2015 10.1129 80.6375 9.40789 79.5799 9.40789C78.2051 9.40789 77.5882 10.6417 77.5882 11.6816V16H75.4378V7.68054L77.0946 7.61004C77.2533 8.19169 77.359 9.05537 77.359 9.42551H77.4119C77.8349 8.42083 78.681 7.57478 80.1968 7.57478ZM89.7404 14.6075C91.7498 14.6075 93.0894 15.4007 93.0894 17.0223C93.0894 18.3971 92.0495 19.6838 88.6124 19.6838C85.5807 19.6838 84.2059 18.8025 84.2059 17.4806C84.2059 16.6522 84.7347 16.0881 85.616 15.7885C85.0519 15.4712 84.6994 14.9601 84.6994 14.2727C84.6994 13.4971 85.2282 12.986 85.8627 12.7744C85.2634 12.228 84.9286 11.5054 84.9286 10.6241C84.9286 8.8086 86.3915 7.59241 88.5771 7.59241C89.4761 7.59241 90.2516 7.7863 90.8509 8.13882C91.4325 7.83917 91.6617 7.08126 91.6617 6.14708L93.3185 6.5701C93.3185 7.96256 92.3138 8.68522 91.6441 8.82623C92.0495 9.30213 92.261 9.91904 92.261 10.6241C92.261 12.4396 90.798 13.6734 88.5948 13.6734C88.0307 13.6734 87.5196 13.5852 87.0789 13.4442C86.6559 13.5324 86.4268 13.7086 86.4268 13.9906C86.4268 14.4665 86.885 14.6075 87.9073 14.6075H89.7404ZM86.9732 10.6241C86.9555 11.4878 87.5901 12.0694 88.5771 12.0694C89.5818 12.087 90.234 11.5054 90.2516 10.6417C90.2516 9.77803 89.5994 9.19637 88.6124 9.17875C87.6253 9.17875 86.9732 9.7604 86.9732 10.6241ZM88.6124 18.1327C90.4279 18.1327 91.0976 17.7978 91.0976 17.1104C91.0976 16.4406 90.5689 16.2644 89.4937 16.2644H87.8368C86.5501 16.2644 86.1447 16.6345 86.1447 17.1457C86.1447 17.8155 86.8322 18.1327 88.6124 18.1327ZM98.1209 14.4313C99.3195 14.4313 99.9716 13.8673 100.324 13.4442L101.417 14.6252C100.782 15.4536 99.5662 16.1058 97.8918 16.1058C95.1245 16.1058 93.45 14.3608 93.45 11.8579C93.45 9.35501 95.1069 7.57478 97.6626 7.57478C100.095 7.57478 101.487 9.24925 101.487 11.4878C101.487 12.0165 101.399 12.3514 101.399 12.3514H95.618C95.8119 13.5852 96.658 14.4313 98.1209 14.4313ZM97.6626 9.24925C96.5874 9.24925 95.8119 9.97192 95.618 11.1352H99.4605C99.4429 10.0424 98.7554 9.24925 97.6626 9.24925ZM107.434 10.6065C107.452 10.5359 107.469 10.3949 107.469 10.2716C107.469 9.54889 106.887 9.09062 105.971 9.09062C105.09 9.09062 104.614 9.49602 104.614 10.06C104.614 11.805 109.514 10.4654 109.549 13.6557C109.549 15.154 108.174 16.1058 105.971 16.1058C103.609 16.1058 102.481 15.1011 102.181 14.8543L103.257 13.5324C103.486 13.7439 104.667 14.537 105.918 14.537C106.887 14.537 107.363 14.2198 107.363 13.7439C107.363 12.2985 102.569 13.1975 102.569 10.1482C102.569 8.59709 103.944 7.57478 106.041 7.57478C108.033 7.57478 109.408 8.56184 109.408 9.91904C109.408 10.2539 109.338 10.4831 109.338 10.4831L107.434 10.6065ZM118.071 7.57478C120.239 7.57478 121.561 8.86148 121.561 10.4831C121.561 10.8356 121.508 11.0647 121.508 11.0647L119.587 11.1881C119.604 11.1352 119.622 10.9766 119.622 10.8003C119.622 9.98954 119.075 9.33738 118.053 9.33738C116.802 9.33738 115.973 10.3244 115.973 11.805C115.973 13.3209 116.784 14.3432 118.318 14.3432C119.692 14.3432 120.415 13.6557 120.679 13.3385L121.772 14.6781C121.173 15.436 119.939 16.1058 118.194 16.1058C115.462 16.1058 113.788 14.3608 113.788 11.8755C113.788 9.33738 115.533 7.57478 118.071 7.57478ZM126.825 7.57478C129.452 7.57478 131.179 9.35501 131.179 11.8579C131.179 14.3608 129.452 16.1058 126.825 16.1058C124.217 16.1058 122.472 14.3608 122.472 11.8579C122.472 9.35501 124.217 7.57478 126.825 7.57478ZM126.825 14.3432C128.147 14.3432 128.993 13.3209 128.993 11.8579C128.993 10.3773 128.147 9.33738 126.825 9.33738C125.504 9.33738 124.658 10.3773 124.658 11.8579C124.658 13.3209 125.504 14.3432 126.825 14.3432ZM137.234 7.57478C139.279 7.57478 140.389 8.96724 140.389 10.8885V16H138.239V11.1881C138.239 10.1129 137.675 9.40789 136.617 9.40789C135.242 9.40789 134.625 10.6417 134.625 11.6816V16H132.475V7.68054L134.132 7.61004C134.291 8.19169 134.396 9.05537 134.396 9.42551H134.449C134.872 8.42083 135.718 7.57478 137.234 7.57478ZM146.831 7.57478C148.875 7.57478 149.986 8.96724 149.986 10.8885V16H147.835V11.1881C147.835 10.1129 147.271 9.40789 146.214 9.40789C144.839 9.40789 144.222 10.6417 144.222 11.6816V16H142.072V7.68054L143.728 7.61004C143.887 8.19169 143.993 9.05537 143.993 9.42551H144.046C144.469 8.42083 145.315 7.57478 146.831 7.57478ZM155.898 14.4313C157.097 14.4313 157.749 13.8673 158.102 13.4442L159.194 14.6252C158.56 15.4536 157.344 16.1058 155.669 16.1058C152.902 16.1058 151.227 14.3608 151.227 11.8579C151.227 9.35501 152.884 7.57478 155.44 7.57478C157.872 7.57478 159.265 9.24925 159.265 11.4878C159.265 12.0165 159.177 12.3514 159.177 12.3514H153.395C153.589 13.5852 154.435 14.4313 155.898 14.4313ZM155.44 9.24925C154.365 9.24925 153.589 9.97192 153.395 11.1352H157.238C157.22 10.0424 156.533 9.24925 155.44 9.24925ZM164.418 7.57478C166.586 7.57478 167.908 8.86148 167.908 10.4831C167.908 10.8356 167.855 11.0647 167.855 11.0647L165.934 11.1881C165.952 11.1352 165.969 10.9766 165.969 10.8003C165.969 9.98954 165.423 9.33738 164.4 9.33738C163.149 9.33738 162.321 10.3244 162.321 11.805C162.321 13.3209 163.131 14.3432 164.665 14.3432C166.04 14.3432 166.762 13.6557 167.027 13.3385L168.12 14.6781C167.52 15.436 166.286 16.1058 164.541 16.1058C161.809 16.1058 160.135 14.3608 160.135 11.8755C160.135 9.33738 161.88 7.57478 164.418 7.57478ZM174.762 13.832L175.379 15.5241C175.379 15.5241 174.515 16.1058 172.999 16.1058C170.831 16.1058 169.774 14.9424 169.774 12.6334V9.33738H168.487V7.68054H169.826V5.30103L171.924 5.2129V7.68054H174.938V9.33738H171.924V12.5629C171.924 13.7439 172.365 14.2903 173.352 14.2903C174.251 14.2903 174.762 13.832 174.762 13.832ZM180.281 14.4313C181.48 14.4313 182.132 13.8673 182.485 13.4442L183.577 14.6252C182.943 15.4536 181.727 16.1058 180.052 16.1058C177.285 16.1058 175.61 14.3608 175.61 11.8579C175.61 9.35501 177.267 7.57478 179.823 7.57478C182.255 7.57478 183.648 9.24925 183.648 11.4878C183.648 12.0165 183.56 12.3514 183.56 12.3514H177.778C177.972 13.5852 178.818 14.4313 180.281 14.4313ZM179.823 9.24925C178.748 9.24925 177.972 9.97192 177.778 11.1352H181.621C181.603 10.0424 180.916 9.24925 179.823 9.24925ZM191.022 3.55606H193.172V16L191.463 16.0705C191.339 15.5241 191.234 14.5899 191.251 14.3255H191.198C190.74 15.3478 189.806 16.1058 188.325 16.1058C186.052 16.1058 184.553 14.3432 184.553 11.8579C184.553 9.17875 186.228 7.57478 188.431 7.57478C189.682 7.57478 190.529 8.08594 191.022 8.79098V3.55606ZM188.872 14.3079C190.229 14.3079 191.022 13.1446 191.022 12.087V11.5935C191.022 10.5712 190.282 9.37263 188.801 9.37263C187.55 9.37263 186.721 10.3421 186.721 11.8579C186.721 13.3209 187.55 14.3079 188.872 14.3079ZM203.732 13.832L204.349 15.5241C204.349 15.5241 203.486 16.1058 201.97 16.1058C199.802 16.1058 198.744 14.9424 198.744 12.6334V9.33738H197.457V7.68054H198.797V5.30103L200.895 5.2129V7.68054H203.909V9.33738H200.895V12.5629C200.895 13.7439 201.335 14.2903 202.322 14.2903C203.221 14.2903 203.732 13.832 203.732 13.832ZM208.917 7.57478C211.543 7.57478 213.271 9.35501 213.271 11.8579C213.271 14.3608 211.543 16.1058 208.917 16.1058C206.308 16.1058 204.563 14.3608 204.563 11.8579C204.563 9.35501 206.308 7.57478 208.917 7.57478ZM208.917 14.3432C210.239 14.3432 211.085 13.3209 211.085 11.8579C211.085 10.3773 210.239 9.33738 208.917 9.33738C207.595 9.33738 206.749 10.3773 206.749 11.8579C206.749 13.3209 207.595 14.3432 208.917 14.3432ZM223.365 13.832L223.982 15.5241C223.982 15.5241 223.118 16.1058 221.602 16.1058C219.434 16.1058 218.376 14.9424 218.376 12.6334V9.33738H217.09V7.68054H218.429V5.30103L220.527 5.2129V7.68054H223.541V9.33738H220.527V12.5629C220.527 13.7439 220.967 14.2903 221.955 14.2903C222.853 14.2903 223.365 13.832 223.365 13.832ZM232.689 14.2903L232.777 15.9647C232.777 15.9647 232.301 16.0881 231.719 16.0881C230.644 16.0881 230.045 15.6651 229.904 14.7662C229.657 15.2421 228.952 16.1058 227.172 16.1058C225.356 16.1058 224.352 15.1892 224.352 13.8144C224.352 11.8226 226.379 11.241 229.657 11.1881H229.798V10.7827C229.798 9.84853 229.234 9.23163 228.123 9.23163C227.101 9.23163 226.537 9.63702 226.537 10.3244C226.537 10.4654 226.572 10.5712 226.608 10.6593L224.704 10.9766C224.704 10.9766 224.598 10.6417 224.598 10.2011C224.598 8.63234 225.955 7.57478 228.194 7.57478C230.573 7.57478 231.895 8.8086 231.895 10.8356V13.7615C231.895 14.1845 232.036 14.3255 232.389 14.3255C232.495 14.3255 232.6 14.3079 232.689 14.2903ZM227.736 14.4665C229.04 14.4665 229.798 13.7791 229.798 13.0741V12.369H229.657C227.401 12.4043 226.449 12.7568 226.449 13.5852C226.449 14.1493 226.907 14.4665 227.736 14.4665ZM239.704 16L236.902 12.4219H236.091V16H233.941V3.55606H236.091V10.7651H237.131L239.528 7.68054H241.978L238.717 11.6464L242.331 16H239.704ZM245.455 5.00139C245.455 5.79456 244.821 6.35859 244.045 6.35859C243.252 6.35859 242.635 5.79456 242.635 5.00139C242.635 4.22585 243.252 3.64419 244.045 3.64419C244.821 3.64419 245.455 4.22585 245.455 5.00139ZM242.952 16V7.68054L245.103 7.61004V16H242.952ZM251.645 7.57478C253.689 7.57478 254.8 8.96724 254.8 10.8885V16H252.649V11.1881C252.649 10.1129 252.085 9.40789 251.028 9.40789C249.653 9.40789 249.036 10.6417 249.036 11.6816V16H246.886V7.68054L248.542 7.61004C248.701 8.19169 248.807 9.05537 248.807 9.42551H248.86C249.283 8.42083 250.129 7.57478 251.645 7.57478ZM261.188 14.6075C263.198 14.6075 264.537 15.4007 264.537 17.0223C264.537 18.3971 263.497 19.6838 260.06 19.6838C257.028 19.6838 255.654 18.8025 255.654 17.4806C255.654 16.6522 256.182 16.0881 257.064 15.7885C256.5 15.4712 256.147 14.9601 256.147 14.2727C256.147 13.4971 256.676 12.986 257.31 12.7744C256.711 12.228 256.376 11.5054 256.376 10.6241C256.376 8.8086 257.839 7.59241 260.025 7.59241C260.924 7.59241 261.699 7.7863 262.299 8.13882C262.88 7.83917 263.109 7.08126 263.109 6.14708L264.766 6.5701C264.766 7.96256 263.762 8.68522 263.092 8.82623C263.497 9.30213 263.709 9.91904 263.709 10.6241C263.709 12.4396 262.246 13.6734 260.042 13.6734C259.478 13.6734 258.967 13.5852 258.527 13.4442C258.104 13.5324 257.874 13.7086 257.874 13.9906C257.874 14.4665 258.333 14.6075 259.355 14.6075H261.188ZM258.421 10.6241C258.403 11.4878 259.038 12.0694 260.025 12.0694C261.03 12.087 261.682 11.5054 261.699 10.6417C261.699 9.77803 261.047 9.19637 260.06 9.17875C259.073 9.17875 258.421 9.7604 258.421 10.6241ZM260.06 18.1327C261.876 18.1327 262.545 17.7978 262.545 17.1104C262.545 16.4406 262.017 16.2644 260.941 16.2644H259.285C257.998 16.2644 257.592 16.6345 257.592 17.1457C257.592 17.8155 258.28 18.1327 260.06 18.1327ZM279.117 7.59241C281.127 7.59241 282.255 8.98486 282.255 10.9237V16H280.105V11.2057C280.105 10.1306 279.558 9.44314 278.501 9.44314C277.196 9.44314 276.615 10.6593 276.615 11.6816V16H274.464V11.2057C274.464 10.1306 273.918 9.44314 272.86 9.44314C271.556 9.44314 270.992 10.6593 270.992 11.6816V16H268.842V7.68054L270.498 7.61004C270.657 8.15644 270.763 9.05537 270.763 9.42551H270.78C271.186 8.4032 272.014 7.59241 273.477 7.59241C274.958 7.59241 275.962 8.3327 276.385 9.49602C276.773 8.43846 277.619 7.59241 279.117 7.59241ZM288.159 14.4313C289.358 14.4313 290.01 13.8673 290.362 13.4442L291.455 14.6252C290.821 15.4536 289.605 16.1058 287.93 16.1058C285.163 16.1058 283.488 14.3608 283.488 11.8579C283.488 9.35501 285.145 7.57478 287.701 7.57478C290.133 7.57478 291.526 9.24925 291.526 11.4878C291.526 12.0165 291.438 12.3514 291.438 12.3514H285.656C285.85 13.5852 286.696 14.4313 288.159 14.4313ZM287.701 9.24925C286.626 9.24925 285.85 9.97192 285.656 11.1352H289.499C289.481 10.0424 288.794 9.24925 287.701 9.24925ZM298.9 3.55606H301.05V16L299.341 16.0705C299.217 15.5241 299.111 14.5899 299.129 14.3255H299.076C298.618 15.3478 297.684 16.1058 296.203 16.1058C293.929 16.1058 292.431 14.3432 292.431 11.8579C292.431 9.17875 294.106 7.57478 296.309 7.57478C297.56 7.57478 298.406 8.08594 298.9 8.79098V3.55606ZM296.75 14.3079C298.107 14.3079 298.9 13.1446 298.9 12.087V11.5935C298.9 10.5712 298.16 9.37263 296.679 9.37263C295.428 9.37263 294.599 10.3421 294.599 11.8579C294.599 13.3209 295.428 14.3079 296.75 14.3079ZM305.333 5.00139C305.333 5.79456 304.698 6.35859 303.923 6.35859C303.129 6.35859 302.513 5.79456 302.513 5.00139C302.513 4.22585 303.129 3.64419 303.923 3.64419C304.698 3.64419 305.333 4.22585 305.333 5.00139ZM302.83 16V7.68054L304.98 7.61004V16H302.83ZM310.588 7.57478C312.756 7.57478 314.078 8.86148 314.078 10.4831C314.078 10.8356 314.025 11.0647 314.025 11.0647L312.104 11.1881C312.121 11.1352 312.139 10.9766 312.139 10.8003C312.139 9.98954 311.592 9.33738 310.57 9.33738C309.319 9.33738 308.49 10.3244 308.49 11.805C308.49 13.3209 309.301 14.3432 310.834 14.3432C312.209 14.3432 312.932 13.6557 313.196 13.3385L314.289 14.6781C313.69 15.436 312.456 16.1058 310.711 16.1058C307.979 16.1058 306.305 14.3608 306.305 11.8755C306.305 9.33738 308.05 7.57478 310.588 7.57478ZM323.361 14.2903L323.449 15.9647C323.449 15.9647 322.973 16.0881 322.392 16.0881C321.317 16.0881 320.717 15.6651 320.576 14.7662C320.33 15.2421 319.624 16.1058 317.844 16.1058C316.029 16.1058 315.024 15.1892 315.024 13.8144C315.024 11.8226 317.051 11.241 320.33 11.1881H320.471V10.7827C320.471 9.84853 319.906 9.23163 318.796 9.23163C317.774 9.23163 317.21 9.63702 317.21 10.3244C317.21 10.4654 317.245 10.5712 317.28 10.6593L315.377 10.9766C315.377 10.9766 315.271 10.6417 315.271 10.2011C315.271 8.63234 316.628 7.57478 318.867 7.57478C321.246 7.57478 322.568 8.8086 322.568 10.8356V13.7615C322.568 14.1845 322.709 14.3255 323.062 14.3255C323.167 14.3255 323.273 14.3079 323.361 14.2903ZM318.408 14.4665C319.713 14.4665 320.471 13.7791 320.471 13.0741V12.369H320.33C318.073 12.4043 317.122 12.7568 317.122 13.5852C317.122 14.1493 317.58 14.4665 318.408 14.4665ZM329.96 13.832L330.577 15.5241C330.577 15.5241 329.713 16.1058 328.197 16.1058C326.029 16.1058 324.972 14.9424 324.972 12.6334V9.33738H323.685V7.68054H325.024V5.30103L327.122 5.2129V7.68054H330.136V9.33738H327.122V12.5629C327.122 13.7439 327.563 14.2903 328.55 14.2903C329.449 14.2903 329.96 13.832 329.96 13.832ZM333.89 5.00139C333.89 5.79456 333.256 6.35859 332.48 6.35859C331.687 6.35859 331.07 5.79456 331.07 5.00139C331.07 4.22585 331.687 3.64419 332.48 3.64419C333.256 3.64419 333.89 4.22585 333.89 5.00139ZM331.387 16V7.68054L333.538 7.61004V16H331.387ZM339.216 7.57478C341.842 7.57478 343.569 9.35501 343.569 11.8579C343.569 14.3608 341.842 16.1058 339.216 16.1058C336.607 16.1058 334.862 14.3608 334.862 11.8579C334.862 9.35501 336.607 7.57478 339.216 7.57478ZM339.216 14.3432C340.538 14.3432 341.384 13.3209 341.384 11.8579C341.384 10.3773 340.538 9.33738 339.216 9.33738C337.894 9.33738 337.048 10.3773 337.048 11.8579C337.048 13.3209 337.894 14.3432 339.216 14.3432ZM349.624 7.57478C351.669 7.57478 352.779 8.96724 352.779 10.8885V16H350.629V11.1881C350.629 10.1129 350.065 9.40789 349.007 9.40789C347.633 9.40789 347.016 10.6417 347.016 11.6816V16H344.865V7.68054L346.522 7.61004C346.681 8.19169 346.786 9.05537 346.786 9.42551H346.839C347.262 8.42083 348.108 7.57478 349.624 7.57478ZM354.356 8.84385C354.356 8.13882 354.92 7.55716 355.625 7.55716C356.33 7.55716 356.894 8.13882 356.894 8.84385C356.894 9.53127 356.33 10.0953 355.625 10.0953C354.92 10.0953 354.356 9.53127 354.356 8.84385ZM354.356 14.8719C354.356 14.1669 354.92 13.5852 355.625 13.5852C356.33 13.5852 356.894 14.1669 356.894 14.8719C356.894 15.5594 356.33 16.1234 355.625 16.1234C354.92 16.1234 354.356 15.5594 354.356 14.8719Z" fill="#012725"/>
</svg>
